<mxfile host="app.diagrams.net" modified="2023-11-27T05:27:29.167Z" agent="Mozilla/5.0 (Windows NT 10.0; Win64; x64) AppleWebKit/537.36 (KHTML, like Gecko) Chrome/119.0.0.0 Safari/537.36" etag="55gLqVrB_iB0VQDNMCvI" version="22.1.4" type="device">
  <diagram id="C5RBs43oDa-KdzZeNtuy" name="Page-1">
    <mxGraphModel dx="1120" dy="2816" grid="1" gridSize="10" guides="1" tooltips="1" connect="1" arrows="1" fold="1" page="1" pageScale="1" pageWidth="827" pageHeight="1169" math="0" shadow="0">
      <root>
        <mxCell id="WIyWlLk6GJQsqaUBKTNV-0" />
        <mxCell id="WIyWlLk6GJQsqaUBKTNV-1" parent="WIyWlLk6GJQsqaUBKTNV-0" />
        <mxCell id="eiXjgrz9EAbIEzw9EVBK-0" value="" style="edgeStyle=orthogonalEdgeStyle;rounded=0;orthogonalLoop=1;jettySize=auto;html=1;" edge="1" parent="WIyWlLk6GJQsqaUBKTNV-1" source="eiXjgrz9EAbIEzw9EVBK-1" target="eiXjgrz9EAbIEzw9EVBK-28">
          <mxGeometry relative="1" as="geometry" />
        </mxCell>
        <mxCell id="eiXjgrz9EAbIEzw9EVBK-1" value="start" style="ellipse;whiteSpace=wrap;html=1;" vertex="1" parent="WIyWlLk6GJQsqaUBKTNV-1">
          <mxGeometry x="354" y="20" width="120" height="80" as="geometry" />
        </mxCell>
        <mxCell id="eiXjgrz9EAbIEzw9EVBK-2" value="" style="edgeStyle=orthogonalEdgeStyle;rounded=0;orthogonalLoop=1;jettySize=auto;html=1;" edge="1" parent="WIyWlLk6GJQsqaUBKTNV-1" source="eiXjgrz9EAbIEzw9EVBK-3" target="eiXjgrz9EAbIEzw9EVBK-7">
          <mxGeometry relative="1" as="geometry" />
        </mxCell>
        <mxCell id="eiXjgrz9EAbIEzw9EVBK-3" value="increasea(int a[],int n)" style="ellipse;whiteSpace=wrap;html=1;" vertex="1" parent="WIyWlLk6GJQsqaUBKTNV-1">
          <mxGeometry x="500" y="-280" width="120" height="80" as="geometry" />
        </mxCell>
        <mxCell id="eiXjgrz9EAbIEzw9EVBK-4" style="edgeStyle=orthogonalEdgeStyle;rounded=0;orthogonalLoop=1;jettySize=auto;html=1;entryX=0;entryY=0.75;entryDx=0;entryDy=0;" edge="1" parent="WIyWlLk6GJQsqaUBKTNV-1" source="eiXjgrz9EAbIEzw9EVBK-5" target="eiXjgrz9EAbIEzw9EVBK-30">
          <mxGeometry relative="1" as="geometry" />
        </mxCell>
        <mxCell id="eiXjgrz9EAbIEzw9EVBK-5" value="&#xa;&lt;div style=&quot;color: rgb(212, 212, 212); background-color: rgb(30, 30, 30); font-family: Consolas, &amp;quot;Courier New&amp;quot;, monospace; font-weight: normal; font-size: 14px; line-height: 19px;&quot;&gt;&lt;div&gt;&lt;span style=&quot;color: #d4d4d4;&quot;&gt;&amp;nbsp;&lt;/span&gt;&lt;span style=&quot;color: #c8c8c8;&quot;&gt;decrease&lt;/span&gt;&lt;span style=&quot;color: #d4d4d4;&quot;&gt;(&lt;/span&gt;&lt;span style=&quot;color: #569cd6;&quot;&gt;int&lt;/span&gt;&lt;span style=&quot;color: #d4d4d4;&quot;&gt; &lt;/span&gt;&lt;span style=&quot;color: #7f7f7f;&quot;&gt;a&lt;/span&gt;&lt;span style=&quot;color: #569cd6;&quot;&gt;[]&lt;/span&gt;&lt;span style=&quot;color: #d4d4d4;&quot;&gt;, &lt;/span&gt;&lt;span style=&quot;color: #569cd6;&quot;&gt;int&lt;/span&gt;&lt;span style=&quot;color: #d4d4d4;&quot;&gt; &lt;/span&gt;&lt;span style=&quot;color: #7f7f7f;&quot;&gt;n&lt;/span&gt;&lt;span style=&quot;color: #d4d4d4;&quot;&gt;)&lt;/span&gt;&lt;/div&gt;&lt;/div&gt;&#xa;&#xa;" style="ellipse;whiteSpace=wrap;html=1;" vertex="1" parent="WIyWlLk6GJQsqaUBKTNV-1">
          <mxGeometry x="400" y="-960" width="220" height="90" as="geometry" />
        </mxCell>
        <mxCell id="eiXjgrz9EAbIEzw9EVBK-6" value="" style="edgeStyle=orthogonalEdgeStyle;rounded=0;orthogonalLoop=1;jettySize=auto;html=1;" edge="1" parent="WIyWlLk6GJQsqaUBKTNV-1" source="eiXjgrz9EAbIEzw9EVBK-7" target="eiXjgrz9EAbIEzw9EVBK-20">
          <mxGeometry relative="1" as="geometry">
            <mxPoint x="910" y="-240" as="targetPoint" />
          </mxGeometry>
        </mxCell>
        <mxCell id="eiXjgrz9EAbIEzw9EVBK-7" value="int i=0,j=0;" style="whiteSpace=wrap;html=1;" vertex="1" parent="WIyWlLk6GJQsqaUBKTNV-1">
          <mxGeometry x="700" y="-270" width="120" height="60" as="geometry" />
        </mxCell>
        <mxCell id="eiXjgrz9EAbIEzw9EVBK-8" value="" style="edgeStyle=orthogonalEdgeStyle;rounded=0;orthogonalLoop=1;jettySize=auto;html=1;" edge="1" parent="WIyWlLk6GJQsqaUBKTNV-1" source="eiXjgrz9EAbIEzw9EVBK-12" target="eiXjgrz9EAbIEzw9EVBK-14">
          <mxGeometry relative="1" as="geometry" />
        </mxCell>
        <mxCell id="eiXjgrz9EAbIEzw9EVBK-9" value="true" style="edgeLabel;html=1;align=center;verticalAlign=middle;resizable=0;points=[];" vertex="1" connectable="0" parent="eiXjgrz9EAbIEzw9EVBK-8">
          <mxGeometry y="-2" relative="1" as="geometry">
            <mxPoint as="offset" />
          </mxGeometry>
        </mxCell>
        <mxCell id="eiXjgrz9EAbIEzw9EVBK-10" value="" style="edgeStyle=orthogonalEdgeStyle;rounded=0;orthogonalLoop=1;jettySize=auto;html=1;" edge="1" parent="WIyWlLk6GJQsqaUBKTNV-1" source="eiXjgrz9EAbIEzw9EVBK-12" target="eiXjgrz9EAbIEzw9EVBK-16">
          <mxGeometry relative="1" as="geometry" />
        </mxCell>
        <mxCell id="eiXjgrz9EAbIEzw9EVBK-11" value="false" style="edgeLabel;html=1;align=center;verticalAlign=middle;resizable=0;points=[];" vertex="1" connectable="0" parent="eiXjgrz9EAbIEzw9EVBK-10">
          <mxGeometry x="0.0222" relative="1" as="geometry">
            <mxPoint as="offset" />
          </mxGeometry>
        </mxCell>
        <mxCell id="eiXjgrz9EAbIEzw9EVBK-12" value="&#xa;&lt;div style=&quot;color: rgb(212, 212, 212); background-color: rgb(30, 30, 30); font-family: Consolas, &amp;quot;Courier New&amp;quot;, monospace; font-weight: normal; font-size: 14px; line-height: 19px;&quot;&gt;&lt;div&gt;&lt;span style=&quot;color: #7f7f7f;&quot;&gt;a&lt;/span&gt;&lt;span style=&quot;color: #d4d4d4;&quot;&gt;[&lt;/span&gt;&lt;span style=&quot;color: #c8c8c8;&quot;&gt;j&lt;/span&gt;&lt;span style=&quot;color: #d4d4d4;&quot;&gt;] &amp;lt; &lt;/span&gt;&lt;span style=&quot;color: #7f7f7f;&quot;&gt;a&lt;/span&gt;&lt;span style=&quot;color: #d4d4d4;&quot;&gt;[&lt;/span&gt;&lt;span style=&quot;color: #c8c8c8;&quot;&gt;j&lt;/span&gt;&lt;span style=&quot;color: #d4d4d4;&quot;&gt; + &lt;/span&gt;&lt;span style=&quot;color: #b5cea8;&quot;&gt;1&lt;/span&gt;&lt;/div&gt;&lt;/div&gt;&#xa;&#xa;" style="rhombus;whiteSpace=wrap;html=1;" vertex="1" parent="WIyWlLk6GJQsqaUBKTNV-1">
          <mxGeometry x="1260" y="-280" width="120" height="80" as="geometry" />
        </mxCell>
        <mxCell id="eiXjgrz9EAbIEzw9EVBK-13" style="edgeStyle=orthogonalEdgeStyle;rounded=0;orthogonalLoop=1;jettySize=auto;html=1;entryX=1;entryY=0.5;entryDx=0;entryDy=0;" edge="1" parent="WIyWlLk6GJQsqaUBKTNV-1" source="eiXjgrz9EAbIEzw9EVBK-14" target="eiXjgrz9EAbIEzw9EVBK-16">
          <mxGeometry relative="1" as="geometry">
            <mxPoint x="1545" y="-50" as="targetPoint" />
            <Array as="points">
              <mxPoint x="1545" y="-130" />
              <mxPoint x="1546" y="-130" />
              <mxPoint x="1546" y="-80" />
            </Array>
          </mxGeometry>
        </mxCell>
        <mxCell id="eiXjgrz9EAbIEzw9EVBK-14" value="&lt;span style=&quot;background-color: rgb(30, 30, 30); font-family: Consolas, &amp;quot;Courier New&amp;quot;, monospace; font-size: 14px; color: rgb(86, 156, 214);&quot;&gt;int&lt;/span&gt;&lt;span style=&quot;background-color: rgb(30, 30, 30); color: rgb(212, 212, 212); font-family: Consolas, &amp;quot;Courier New&amp;quot;, monospace; font-size: 14px;&quot;&gt; &lt;/span&gt;&lt;span style=&quot;background-color: rgb(30, 30, 30); font-family: Consolas, &amp;quot;Courier New&amp;quot;, monospace; font-size: 14px; color: rgb(200, 200, 200);&quot;&gt;temp&lt;/span&gt;&lt;span style=&quot;background-color: rgb(30, 30, 30); color: rgb(212, 212, 212); font-family: Consolas, &amp;quot;Courier New&amp;quot;, monospace; font-size: 14px;&quot;&gt; = &lt;/span&gt;&lt;span style=&quot;background-color: rgb(30, 30, 30); font-family: Consolas, &amp;quot;Courier New&amp;quot;, monospace; font-size: 14px; color: rgb(127, 127, 127);&quot;&gt;a&lt;/span&gt;&lt;span style=&quot;background-color: rgb(30, 30, 30); color: rgb(212, 212, 212); font-family: Consolas, &amp;quot;Courier New&amp;quot;, monospace; font-size: 14px;&quot;&gt;[&lt;/span&gt;&lt;span style=&quot;background-color: rgb(30, 30, 30); font-family: Consolas, &amp;quot;Courier New&amp;quot;, monospace; font-size: 14px; color: rgb(200, 200, 200);&quot;&gt;j&lt;/span&gt;&lt;span style=&quot;background-color: rgb(30, 30, 30); color: rgb(212, 212, 212); font-family: Consolas, &amp;quot;Courier New&amp;quot;, monospace; font-size: 14px;&quot;&gt;]&lt;br&gt;&lt;/span&gt;&lt;span style=&quot;background-color: rgb(30, 30, 30); color: rgb(212, 212, 212); font-family: Consolas, &amp;quot;Courier New&amp;quot;, monospace; font-size: 14px;&quot;&gt;&amp;nbsp;&lt;/span&gt;&lt;span style=&quot;background-color: rgb(30, 30, 30); font-family: Consolas, &amp;quot;Courier New&amp;quot;, monospace; font-size: 14px; color: rgb(127, 127, 127);&quot;&gt;a&lt;/span&gt;&lt;span style=&quot;background-color: rgb(30, 30, 30); color: rgb(212, 212, 212); font-family: Consolas, &amp;quot;Courier New&amp;quot;, monospace; font-size: 14px;&quot;&gt;[&lt;/span&gt;&lt;span style=&quot;background-color: rgb(30, 30, 30); font-family: Consolas, &amp;quot;Courier New&amp;quot;, monospace; font-size: 14px; color: rgb(200, 200, 200);&quot;&gt;j&lt;/span&gt;&lt;span style=&quot;background-color: rgb(30, 30, 30); color: rgb(212, 212, 212); font-family: Consolas, &amp;quot;Courier New&amp;quot;, monospace; font-size: 14px;&quot;&gt;] = &lt;/span&gt;&lt;span style=&quot;background-color: rgb(30, 30, 30); font-family: Consolas, &amp;quot;Courier New&amp;quot;, monospace; font-size: 14px; color: rgb(127, 127, 127);&quot;&gt;a&lt;/span&gt;&lt;span style=&quot;background-color: rgb(30, 30, 30); color: rgb(212, 212, 212); font-family: Consolas, &amp;quot;Courier New&amp;quot;, monospace; font-size: 14px;&quot;&gt;[&lt;/span&gt;&lt;span style=&quot;background-color: rgb(30, 30, 30); font-family: Consolas, &amp;quot;Courier New&amp;quot;, monospace; font-size: 14px; color: rgb(200, 200, 200);&quot;&gt;j&lt;/span&gt;&lt;span style=&quot;background-color: rgb(30, 30, 30); color: rgb(212, 212, 212); font-family: Consolas, &amp;quot;Courier New&amp;quot;, monospace; font-size: 14px;&quot;&gt; + &lt;/span&gt;&lt;span style=&quot;background-color: rgb(30, 30, 30); font-family: Consolas, &amp;quot;Courier New&amp;quot;, monospace; font-size: 14px; color: rgb(181, 206, 168);&quot;&gt;1&lt;/span&gt;&lt;span style=&quot;background-color: rgb(30, 30, 30); color: rgb(212, 212, 212); font-family: Consolas, &amp;quot;Courier New&amp;quot;, monospace; font-size: 14px;&quot;&gt;]&lt;/span&gt;&lt;span style=&quot;background-color: rgb(30, 30, 30); color: rgb(212, 212, 212); font-family: Consolas, &amp;quot;Courier New&amp;quot;, monospace; font-size: 14px;&quot;&gt;&amp;nbsp;&amp;nbsp;&lt;br&gt;&lt;/span&gt;&lt;span style=&quot;background-color: rgb(30, 30, 30); font-family: Consolas, &amp;quot;Courier New&amp;quot;, monospace; font-size: 14px; color: rgb(127, 127, 127);&quot;&gt;a&lt;/span&gt;&lt;span style=&quot;background-color: rgb(30, 30, 30); color: rgb(212, 212, 212); font-family: Consolas, &amp;quot;Courier New&amp;quot;, monospace; font-size: 14px;&quot;&gt;[&lt;/span&gt;&lt;span style=&quot;background-color: rgb(30, 30, 30); font-family: Consolas, &amp;quot;Courier New&amp;quot;, monospace; font-size: 14px; color: rgb(200, 200, 200);&quot;&gt;j&lt;/span&gt;&lt;span style=&quot;background-color: rgb(30, 30, 30); color: rgb(212, 212, 212); font-family: Consolas, &amp;quot;Courier New&amp;quot;, monospace; font-size: 14px;&quot;&gt; + &lt;/span&gt;&lt;span style=&quot;background-color: rgb(30, 30, 30); font-family: Consolas, &amp;quot;Courier New&amp;quot;, monospace; font-size: 14px; color: rgb(181, 206, 168);&quot;&gt;1&lt;/span&gt;&lt;span style=&quot;background-color: rgb(30, 30, 30); color: rgb(212, 212, 212); font-family: Consolas, &amp;quot;Courier New&amp;quot;, monospace; font-size: 14px;&quot;&gt;] = &lt;/span&gt;&lt;span style=&quot;background-color: rgb(30, 30, 30); font-family: Consolas, &amp;quot;Courier New&amp;quot;, monospace; font-size: 14px; color: rgb(200, 200, 200);&quot;&gt;temp&lt;/span&gt;&lt;span style=&quot;background-color: rgb(30, 30, 30); color: rgb(212, 212, 212); font-family: Consolas, &amp;quot;Courier New&amp;quot;, monospace; font-size: 14px;&quot;&gt;&lt;br&gt;&lt;/span&gt;" style="whiteSpace=wrap;html=1;" vertex="1" parent="WIyWlLk6GJQsqaUBKTNV-1">
          <mxGeometry x="1460" y="-270" width="170" height="60" as="geometry" />
        </mxCell>
        <mxCell id="eiXjgrz9EAbIEzw9EVBK-15" style="edgeStyle=orthogonalEdgeStyle;rounded=0;orthogonalLoop=1;jettySize=auto;html=1;" edge="1" parent="WIyWlLk6GJQsqaUBKTNV-1" source="eiXjgrz9EAbIEzw9EVBK-16">
          <mxGeometry relative="1" as="geometry">
            <mxPoint x="1000" y="-240" as="targetPoint" />
          </mxGeometry>
        </mxCell>
        <mxCell id="eiXjgrz9EAbIEzw9EVBK-16" value="j++" style="whiteSpace=wrap;html=1;" vertex="1" parent="WIyWlLk6GJQsqaUBKTNV-1">
          <mxGeometry x="1260" y="-110" width="120" height="60" as="geometry" />
        </mxCell>
        <mxCell id="eiXjgrz9EAbIEzw9EVBK-17" value="" style="edgeStyle=orthogonalEdgeStyle;rounded=0;orthogonalLoop=1;jettySize=auto;html=1;" edge="1" parent="WIyWlLk6GJQsqaUBKTNV-1" source="eiXjgrz9EAbIEzw9EVBK-20" target="eiXjgrz9EAbIEzw9EVBK-23">
          <mxGeometry relative="1" as="geometry" />
        </mxCell>
        <mxCell id="eiXjgrz9EAbIEzw9EVBK-18" value="true" style="edgeLabel;html=1;align=center;verticalAlign=middle;resizable=0;points=[];" vertex="1" connectable="0" parent="eiXjgrz9EAbIEzw9EVBK-17">
          <mxGeometry x="-0.225" relative="1" as="geometry">
            <mxPoint as="offset" />
          </mxGeometry>
        </mxCell>
        <mxCell id="eiXjgrz9EAbIEzw9EVBK-19" value="" style="edgeStyle=orthogonalEdgeStyle;rounded=0;orthogonalLoop=1;jettySize=auto;html=1;" edge="1" parent="WIyWlLk6GJQsqaUBKTNV-1" source="eiXjgrz9EAbIEzw9EVBK-20" target="eiXjgrz9EAbIEzw9EVBK-26">
          <mxGeometry relative="1" as="geometry" />
        </mxCell>
        <mxCell id="eiXjgrz9EAbIEzw9EVBK-20" value="&#xa;&lt;div style=&quot;color: rgb(212, 212, 212); background-color: rgb(30, 30, 30); font-family: Consolas, &amp;quot;Courier New&amp;quot;, monospace; font-weight: normal; font-size: 14px; line-height: 19px;&quot;&gt;&lt;div&gt;&lt;span style=&quot;color: #c8c8c8;&quot;&gt;i&lt;/span&gt;&lt;span style=&quot;color: #d4d4d4;&quot;&gt; &amp;lt; &lt;/span&gt;&lt;span style=&quot;color: #7f7f7f;&quot;&gt;n&lt;/span&gt;&lt;span style=&quot;color: #d4d4d4;&quot;&gt; - &lt;/span&gt;&lt;span style=&quot;color: #b5cea8;&quot;&gt;1&lt;/span&gt;&lt;/div&gt;&lt;/div&gt;&#xa;&#xa;" style="rhombus;whiteSpace=wrap;html=1;" vertex="1" parent="WIyWlLk6GJQsqaUBKTNV-1">
          <mxGeometry x="870" y="-280" width="80" height="80" as="geometry" />
        </mxCell>
        <mxCell id="eiXjgrz9EAbIEzw9EVBK-21" value="true" style="edgeStyle=orthogonalEdgeStyle;rounded=0;orthogonalLoop=1;jettySize=auto;html=1;entryX=0;entryY=0.5;entryDx=0;entryDy=0;" edge="1" parent="WIyWlLk6GJQsqaUBKTNV-1" source="eiXjgrz9EAbIEzw9EVBK-23" target="eiXjgrz9EAbIEzw9EVBK-12">
          <mxGeometry relative="1" as="geometry" />
        </mxCell>
        <mxCell id="eiXjgrz9EAbIEzw9EVBK-22" value="false" style="edgeStyle=orthogonalEdgeStyle;rounded=0;orthogonalLoop=1;jettySize=auto;html=1;" edge="1" parent="WIyWlLk6GJQsqaUBKTNV-1" source="eiXjgrz9EAbIEzw9EVBK-23" target="eiXjgrz9EAbIEzw9EVBK-25">
          <mxGeometry relative="1" as="geometry" />
        </mxCell>
        <mxCell id="eiXjgrz9EAbIEzw9EVBK-23" value="&lt;br&gt;&lt;div style=&quot;color: rgb(212, 212, 212); background-color: rgb(30, 30, 30); font-family: Consolas, &amp;quot;Courier New&amp;quot;, monospace; font-weight: normal; font-size: 14px; line-height: 19px;&quot;&gt;&lt;div&gt;&lt;/div&gt;&lt;/div&gt;&lt;div style=&quot;color: rgb(212, 212, 212); background-color: rgb(30, 30, 30); font-family: Consolas, &amp;quot;Courier New&amp;quot;, monospace; font-size: 14px; line-height: 19px;&quot;&gt;&amp;nbsp;j &amp;lt; &lt;span style=&quot;color: #7f7f7f;&quot;&gt;n&lt;/span&gt; - &lt;span style=&quot;color: #c8c8c8;&quot;&gt;i&lt;/span&gt; - &lt;span style=&quot;color: #b5cea8;&quot;&gt;1&lt;/span&gt;&lt;/div&gt;" style="rhombus;whiteSpace=wrap;html=1;" vertex="1" parent="WIyWlLk6GJQsqaUBKTNV-1">
          <mxGeometry x="1030" y="-280" width="130" height="80" as="geometry" />
        </mxCell>
        <mxCell id="eiXjgrz9EAbIEzw9EVBK-24" style="edgeStyle=orthogonalEdgeStyle;rounded=0;orthogonalLoop=1;jettySize=auto;html=1;" edge="1" parent="WIyWlLk6GJQsqaUBKTNV-1" source="eiXjgrz9EAbIEzw9EVBK-25">
          <mxGeometry relative="1" as="geometry">
            <mxPoint x="850" y="-240" as="targetPoint" />
          </mxGeometry>
        </mxCell>
        <mxCell id="eiXjgrz9EAbIEzw9EVBK-25" value="i++" style="whiteSpace=wrap;html=1;" vertex="1" parent="WIyWlLk6GJQsqaUBKTNV-1">
          <mxGeometry x="1035" y="-430" width="120" height="60" as="geometry" />
        </mxCell>
        <mxCell id="eiXjgrz9EAbIEzw9EVBK-26" value="a[i]" style="shape=parallelogram;perimeter=parallelogramPerimeter;whiteSpace=wrap;html=1;fixedSize=1;" vertex="1" parent="WIyWlLk6GJQsqaUBKTNV-1">
          <mxGeometry x="850" y="110" width="120" height="60" as="geometry" />
        </mxCell>
        <mxCell id="eiXjgrz9EAbIEzw9EVBK-27" value="" style="edgeStyle=orthogonalEdgeStyle;rounded=0;orthogonalLoop=1;jettySize=auto;html=1;" edge="1" parent="WIyWlLk6GJQsqaUBKTNV-1" source="eiXjgrz9EAbIEzw9EVBK-28" target="eiXjgrz9EAbIEzw9EVBK-51">
          <mxGeometry relative="1" as="geometry">
            <mxPoint x="414" y="519.9999999999995" as="targetPoint" />
          </mxGeometry>
        </mxCell>
        <mxCell id="eiXjgrz9EAbIEzw9EVBK-28" value="&#xa;&lt;div style=&quot;color: rgb(212, 212, 212); background-color: rgb(30, 30, 30); font-family: Consolas, &amp;quot;Courier New&amp;quot;, monospace; font-weight: normal; font-size: 14px; line-height: 19px;&quot;&gt;&lt;div&gt;&lt;span style=&quot;color: #569cd6;&quot;&gt;int&lt;/span&gt;&lt;span style=&quot;color: #d4d4d4;&quot;&gt; &lt;/span&gt;&lt;span style=&quot;color: #c8c8c8;&quot;&gt;n&lt;/span&gt;&lt;span style=&quot;color: #d4d4d4;&quot;&gt;, &lt;/span&gt;&lt;span style=&quot;color: #c8c8c8;&quot;&gt;i&lt;/span&gt;&lt;span style=&quot;color: #d4d4d4;&quot;&gt;, &lt;/span&gt;&lt;span style=&quot;color: #c8c8c8;&quot;&gt;count&lt;/span&gt;&lt;span style=&quot;color: #d4d4d4;&quot;&gt;, &lt;/span&gt;&lt;span style=&quot;color: #c8c8c8;&quot;&gt;choice&lt;/span&gt;&lt;span style=&quot;color: #d4d4d4;&quot;&gt;, &lt;/span&gt;&lt;span style=&quot;color: #c8c8c8;&quot;&gt;a&lt;/span&gt;&lt;span style=&quot;color: #d4d4d4;&quot;&gt;[&lt;/span&gt;&lt;span style=&quot;color: #b5cea8;&quot;&gt;100&lt;/span&gt;&lt;span style=&quot;color: #d4d4d4;&quot;&gt;], &lt;/span&gt;&lt;span style=&quot;color: #c8c8c8;&quot;&gt;current&lt;/span&gt;&lt;span style=&quot;color: #d4d4d4;&quot;&gt; = &lt;/span&gt;&lt;span style=&quot;color: #b5cea8;&quot;&gt;0&lt;/span&gt;&lt;span style=&quot;color: #d4d4d4;&quot;&gt;, &lt;/span&gt;&lt;span style=&quot;color: #c8c8c8;&quot;&gt;countArrange&lt;/span&gt;&lt;span style=&quot;color: #d4d4d4;&quot;&gt; = &lt;/span&gt;&lt;span style=&quot;color: #b5cea8;&quot;&gt;0&lt;/span&gt;&lt;span style=&quot;color: #d4d4d4;&quot;&gt;;&lt;/span&gt;&lt;/div&gt;&lt;/div&gt;&#xa;&#xa;" style="shape=parallelogram;perimeter=parallelogramPerimeter;whiteSpace=wrap;html=1;fixedSize=1;" vertex="1" parent="WIyWlLk6GJQsqaUBKTNV-1">
          <mxGeometry x="254" y="240" width="320" height="160" as="geometry" />
        </mxCell>
        <mxCell id="eiXjgrz9EAbIEzw9EVBK-29" value="" style="edgeStyle=orthogonalEdgeStyle;rounded=0;orthogonalLoop=1;jettySize=auto;html=1;" edge="1" parent="WIyWlLk6GJQsqaUBKTNV-1" source="eiXjgrz9EAbIEzw9EVBK-30" target="eiXjgrz9EAbIEzw9EVBK-43">
          <mxGeometry relative="1" as="geometry">
            <mxPoint x="900" y="-1020" as="targetPoint" />
          </mxGeometry>
        </mxCell>
        <mxCell id="eiXjgrz9EAbIEzw9EVBK-30" value="int i=0,j=0;" style="whiteSpace=wrap;html=1;" vertex="1" parent="WIyWlLk6GJQsqaUBKTNV-1">
          <mxGeometry x="690" y="-1050" width="120" height="60" as="geometry" />
        </mxCell>
        <mxCell id="eiXjgrz9EAbIEzw9EVBK-31" value="" style="edgeStyle=orthogonalEdgeStyle;rounded=0;orthogonalLoop=1;jettySize=auto;html=1;" edge="1" parent="WIyWlLk6GJQsqaUBKTNV-1" source="eiXjgrz9EAbIEzw9EVBK-35" target="eiXjgrz9EAbIEzw9EVBK-37">
          <mxGeometry relative="1" as="geometry" />
        </mxCell>
        <mxCell id="eiXjgrz9EAbIEzw9EVBK-32" value="true" style="edgeLabel;html=1;align=center;verticalAlign=middle;resizable=0;points=[];" vertex="1" connectable="0" parent="eiXjgrz9EAbIEzw9EVBK-31">
          <mxGeometry y="-2" relative="1" as="geometry">
            <mxPoint as="offset" />
          </mxGeometry>
        </mxCell>
        <mxCell id="eiXjgrz9EAbIEzw9EVBK-33" value="" style="edgeStyle=orthogonalEdgeStyle;rounded=0;orthogonalLoop=1;jettySize=auto;html=1;" edge="1" parent="WIyWlLk6GJQsqaUBKTNV-1" source="eiXjgrz9EAbIEzw9EVBK-35" target="eiXjgrz9EAbIEzw9EVBK-39">
          <mxGeometry relative="1" as="geometry" />
        </mxCell>
        <mxCell id="eiXjgrz9EAbIEzw9EVBK-34" value="false" style="edgeLabel;html=1;align=center;verticalAlign=middle;resizable=0;points=[];" vertex="1" connectable="0" parent="eiXjgrz9EAbIEzw9EVBK-33">
          <mxGeometry x="0.0222" relative="1" as="geometry">
            <mxPoint as="offset" />
          </mxGeometry>
        </mxCell>
        <mxCell id="eiXjgrz9EAbIEzw9EVBK-35" value="&lt;br&gt;&lt;div style=&quot;color: rgb(212, 212, 212); background-color: rgb(30, 30, 30); font-family: Consolas, &amp;quot;Courier New&amp;quot;, monospace; font-weight: normal; font-size: 14px; line-height: 19px;&quot;&gt;&lt;div&gt;&lt;span style=&quot;color: #7f7f7f;&quot;&gt;a&lt;/span&gt;&lt;span style=&quot;color: #d4d4d4;&quot;&gt;[&lt;/span&gt;&lt;span style=&quot;color: #c8c8c8;&quot;&gt;j&lt;/span&gt;&lt;span style=&quot;color: #d4d4d4;&quot;&gt;] &amp;gt;&amp;nbsp;&lt;/span&gt;&lt;span style=&quot;color: #7f7f7f;&quot;&gt;a&lt;/span&gt;&lt;span style=&quot;color: #d4d4d4;&quot;&gt;[&lt;/span&gt;&lt;span style=&quot;color: #c8c8c8;&quot;&gt;j&lt;/span&gt;&lt;span style=&quot;color: #d4d4d4;&quot;&gt; + &lt;/span&gt;&lt;span style=&quot;color: #b5cea8;&quot;&gt;1&lt;/span&gt;&lt;/div&gt;&lt;/div&gt;&lt;br&gt;" style="rhombus;whiteSpace=wrap;html=1;" vertex="1" parent="WIyWlLk6GJQsqaUBKTNV-1">
          <mxGeometry x="1250" y="-1060" width="120" height="80" as="geometry" />
        </mxCell>
        <mxCell id="eiXjgrz9EAbIEzw9EVBK-36" style="edgeStyle=orthogonalEdgeStyle;rounded=0;orthogonalLoop=1;jettySize=auto;html=1;entryX=1;entryY=0.5;entryDx=0;entryDy=0;" edge="1" parent="WIyWlLk6GJQsqaUBKTNV-1" source="eiXjgrz9EAbIEzw9EVBK-37" target="eiXjgrz9EAbIEzw9EVBK-39">
          <mxGeometry relative="1" as="geometry">
            <mxPoint x="1535" y="-830" as="targetPoint" />
            <Array as="points">
              <mxPoint x="1535" y="-910" />
              <mxPoint x="1536" y="-910" />
              <mxPoint x="1536" y="-860" />
            </Array>
          </mxGeometry>
        </mxCell>
        <mxCell id="eiXjgrz9EAbIEzw9EVBK-37" value="&lt;span style=&quot;background-color: rgb(30, 30, 30); font-family: Consolas, &amp;quot;Courier New&amp;quot;, monospace; font-size: 14px; color: rgb(86, 156, 214);&quot;&gt;int&lt;/span&gt;&lt;span style=&quot;background-color: rgb(30, 30, 30); color: rgb(212, 212, 212); font-family: Consolas, &amp;quot;Courier New&amp;quot;, monospace; font-size: 14px;&quot;&gt; &lt;/span&gt;&lt;span style=&quot;background-color: rgb(30, 30, 30); font-family: Consolas, &amp;quot;Courier New&amp;quot;, monospace; font-size: 14px; color: rgb(200, 200, 200);&quot;&gt;temp&lt;/span&gt;&lt;span style=&quot;background-color: rgb(30, 30, 30); color: rgb(212, 212, 212); font-family: Consolas, &amp;quot;Courier New&amp;quot;, monospace; font-size: 14px;&quot;&gt; = &lt;/span&gt;&lt;span style=&quot;background-color: rgb(30, 30, 30); font-family: Consolas, &amp;quot;Courier New&amp;quot;, monospace; font-size: 14px; color: rgb(127, 127, 127);&quot;&gt;a&lt;/span&gt;&lt;span style=&quot;background-color: rgb(30, 30, 30); color: rgb(212, 212, 212); font-family: Consolas, &amp;quot;Courier New&amp;quot;, monospace; font-size: 14px;&quot;&gt;[&lt;/span&gt;&lt;span style=&quot;background-color: rgb(30, 30, 30); font-family: Consolas, &amp;quot;Courier New&amp;quot;, monospace; font-size: 14px; color: rgb(200, 200, 200);&quot;&gt;j&lt;/span&gt;&lt;span style=&quot;background-color: rgb(30, 30, 30); color: rgb(212, 212, 212); font-family: Consolas, &amp;quot;Courier New&amp;quot;, monospace; font-size: 14px;&quot;&gt;]&lt;br&gt;&lt;/span&gt;&lt;span style=&quot;background-color: rgb(30, 30, 30); color: rgb(212, 212, 212); font-family: Consolas, &amp;quot;Courier New&amp;quot;, monospace; font-size: 14px;&quot;&gt;&amp;nbsp;&lt;/span&gt;&lt;span style=&quot;background-color: rgb(30, 30, 30); font-family: Consolas, &amp;quot;Courier New&amp;quot;, monospace; font-size: 14px; color: rgb(127, 127, 127);&quot;&gt;a&lt;/span&gt;&lt;span style=&quot;background-color: rgb(30, 30, 30); color: rgb(212, 212, 212); font-family: Consolas, &amp;quot;Courier New&amp;quot;, monospace; font-size: 14px;&quot;&gt;[&lt;/span&gt;&lt;span style=&quot;background-color: rgb(30, 30, 30); font-family: Consolas, &amp;quot;Courier New&amp;quot;, monospace; font-size: 14px; color: rgb(200, 200, 200);&quot;&gt;j&lt;/span&gt;&lt;span style=&quot;background-color: rgb(30, 30, 30); color: rgb(212, 212, 212); font-family: Consolas, &amp;quot;Courier New&amp;quot;, monospace; font-size: 14px;&quot;&gt;] = &lt;/span&gt;&lt;span style=&quot;background-color: rgb(30, 30, 30); font-family: Consolas, &amp;quot;Courier New&amp;quot;, monospace; font-size: 14px; color: rgb(127, 127, 127);&quot;&gt;a&lt;/span&gt;&lt;span style=&quot;background-color: rgb(30, 30, 30); color: rgb(212, 212, 212); font-family: Consolas, &amp;quot;Courier New&amp;quot;, monospace; font-size: 14px;&quot;&gt;[&lt;/span&gt;&lt;span style=&quot;background-color: rgb(30, 30, 30); font-family: Consolas, &amp;quot;Courier New&amp;quot;, monospace; font-size: 14px; color: rgb(200, 200, 200);&quot;&gt;j&lt;/span&gt;&lt;span style=&quot;background-color: rgb(30, 30, 30); color: rgb(212, 212, 212); font-family: Consolas, &amp;quot;Courier New&amp;quot;, monospace; font-size: 14px;&quot;&gt; + &lt;/span&gt;&lt;span style=&quot;background-color: rgb(30, 30, 30); font-family: Consolas, &amp;quot;Courier New&amp;quot;, monospace; font-size: 14px; color: rgb(181, 206, 168);&quot;&gt;1&lt;/span&gt;&lt;span style=&quot;background-color: rgb(30, 30, 30); color: rgb(212, 212, 212); font-family: Consolas, &amp;quot;Courier New&amp;quot;, monospace; font-size: 14px;&quot;&gt;]&lt;/span&gt;&lt;span style=&quot;background-color: rgb(30, 30, 30); color: rgb(212, 212, 212); font-family: Consolas, &amp;quot;Courier New&amp;quot;, monospace; font-size: 14px;&quot;&gt;&amp;nbsp;&amp;nbsp;&lt;br&gt;&lt;/span&gt;&lt;span style=&quot;background-color: rgb(30, 30, 30); font-family: Consolas, &amp;quot;Courier New&amp;quot;, monospace; font-size: 14px; color: rgb(127, 127, 127);&quot;&gt;a&lt;/span&gt;&lt;span style=&quot;background-color: rgb(30, 30, 30); color: rgb(212, 212, 212); font-family: Consolas, &amp;quot;Courier New&amp;quot;, monospace; font-size: 14px;&quot;&gt;[&lt;/span&gt;&lt;span style=&quot;background-color: rgb(30, 30, 30); font-family: Consolas, &amp;quot;Courier New&amp;quot;, monospace; font-size: 14px; color: rgb(200, 200, 200);&quot;&gt;j&lt;/span&gt;&lt;span style=&quot;background-color: rgb(30, 30, 30); color: rgb(212, 212, 212); font-family: Consolas, &amp;quot;Courier New&amp;quot;, monospace; font-size: 14px;&quot;&gt; + &lt;/span&gt;&lt;span style=&quot;background-color: rgb(30, 30, 30); font-family: Consolas, &amp;quot;Courier New&amp;quot;, monospace; font-size: 14px; color: rgb(181, 206, 168);&quot;&gt;1&lt;/span&gt;&lt;span style=&quot;background-color: rgb(30, 30, 30); color: rgb(212, 212, 212); font-family: Consolas, &amp;quot;Courier New&amp;quot;, monospace; font-size: 14px;&quot;&gt;] = &lt;/span&gt;&lt;span style=&quot;background-color: rgb(30, 30, 30); font-family: Consolas, &amp;quot;Courier New&amp;quot;, monospace; font-size: 14px; color: rgb(200, 200, 200);&quot;&gt;temp&lt;/span&gt;&lt;span style=&quot;background-color: rgb(30, 30, 30); color: rgb(212, 212, 212); font-family: Consolas, &amp;quot;Courier New&amp;quot;, monospace; font-size: 14px;&quot;&gt;&lt;br&gt;&lt;/span&gt;" style="whiteSpace=wrap;html=1;" vertex="1" parent="WIyWlLk6GJQsqaUBKTNV-1">
          <mxGeometry x="1450" y="-1050" width="170" height="60" as="geometry" />
        </mxCell>
        <mxCell id="eiXjgrz9EAbIEzw9EVBK-38" style="edgeStyle=orthogonalEdgeStyle;rounded=0;orthogonalLoop=1;jettySize=auto;html=1;" edge="1" parent="WIyWlLk6GJQsqaUBKTNV-1" source="eiXjgrz9EAbIEzw9EVBK-39">
          <mxGeometry relative="1" as="geometry">
            <mxPoint x="990" y="-1020" as="targetPoint" />
          </mxGeometry>
        </mxCell>
        <mxCell id="eiXjgrz9EAbIEzw9EVBK-39" value="j++" style="whiteSpace=wrap;html=1;" vertex="1" parent="WIyWlLk6GJQsqaUBKTNV-1">
          <mxGeometry x="1250" y="-890" width="120" height="60" as="geometry" />
        </mxCell>
        <mxCell id="eiXjgrz9EAbIEzw9EVBK-40" value="" style="edgeStyle=orthogonalEdgeStyle;rounded=0;orthogonalLoop=1;jettySize=auto;html=1;" edge="1" parent="WIyWlLk6GJQsqaUBKTNV-1" source="eiXjgrz9EAbIEzw9EVBK-43" target="eiXjgrz9EAbIEzw9EVBK-46">
          <mxGeometry relative="1" as="geometry" />
        </mxCell>
        <mxCell id="eiXjgrz9EAbIEzw9EVBK-41" value="true" style="edgeLabel;html=1;align=center;verticalAlign=middle;resizable=0;points=[];" vertex="1" connectable="0" parent="eiXjgrz9EAbIEzw9EVBK-40">
          <mxGeometry x="-0.225" relative="1" as="geometry">
            <mxPoint as="offset" />
          </mxGeometry>
        </mxCell>
        <mxCell id="eiXjgrz9EAbIEzw9EVBK-42" value="" style="edgeStyle=orthogonalEdgeStyle;rounded=0;orthogonalLoop=1;jettySize=auto;html=1;" edge="1" parent="WIyWlLk6GJQsqaUBKTNV-1" source="eiXjgrz9EAbIEzw9EVBK-43" target="eiXjgrz9EAbIEzw9EVBK-49">
          <mxGeometry relative="1" as="geometry" />
        </mxCell>
        <mxCell id="eiXjgrz9EAbIEzw9EVBK-43" value="&#xa;&lt;div style=&quot;color: rgb(212, 212, 212); background-color: rgb(30, 30, 30); font-family: Consolas, &amp;quot;Courier New&amp;quot;, monospace; font-weight: normal; font-size: 14px; line-height: 19px;&quot;&gt;&lt;div&gt;&lt;span style=&quot;color: #c8c8c8;&quot;&gt;i&lt;/span&gt;&lt;span style=&quot;color: #d4d4d4;&quot;&gt; &amp;lt; &lt;/span&gt;&lt;span style=&quot;color: #7f7f7f;&quot;&gt;n&lt;/span&gt;&lt;span style=&quot;color: #d4d4d4;&quot;&gt; - &lt;/span&gt;&lt;span style=&quot;color: #b5cea8;&quot;&gt;1&lt;/span&gt;&lt;/div&gt;&lt;/div&gt;&#xa;&#xa;" style="rhombus;whiteSpace=wrap;html=1;" vertex="1" parent="WIyWlLk6GJQsqaUBKTNV-1">
          <mxGeometry x="860" y="-1060" width="80" height="80" as="geometry" />
        </mxCell>
        <mxCell id="eiXjgrz9EAbIEzw9EVBK-44" value="true" style="edgeStyle=orthogonalEdgeStyle;rounded=0;orthogonalLoop=1;jettySize=auto;html=1;entryX=0;entryY=0.5;entryDx=0;entryDy=0;" edge="1" parent="WIyWlLk6GJQsqaUBKTNV-1" source="eiXjgrz9EAbIEzw9EVBK-46" target="eiXjgrz9EAbIEzw9EVBK-35">
          <mxGeometry relative="1" as="geometry" />
        </mxCell>
        <mxCell id="eiXjgrz9EAbIEzw9EVBK-45" value="false" style="edgeStyle=orthogonalEdgeStyle;rounded=0;orthogonalLoop=1;jettySize=auto;html=1;" edge="1" parent="WIyWlLk6GJQsqaUBKTNV-1" source="eiXjgrz9EAbIEzw9EVBK-46" target="eiXjgrz9EAbIEzw9EVBK-48">
          <mxGeometry relative="1" as="geometry" />
        </mxCell>
        <mxCell id="eiXjgrz9EAbIEzw9EVBK-46" value="&lt;br&gt;&lt;div style=&quot;color: rgb(212, 212, 212); background-color: rgb(30, 30, 30); font-family: Consolas, &amp;quot;Courier New&amp;quot;, monospace; font-weight: normal; font-size: 14px; line-height: 19px;&quot;&gt;&lt;div&gt;&lt;/div&gt;&lt;/div&gt;&lt;div style=&quot;color: rgb(212, 212, 212); background-color: rgb(30, 30, 30); font-family: Consolas, &amp;quot;Courier New&amp;quot;, monospace; font-size: 14px; line-height: 19px;&quot;&gt;&amp;nbsp;j &amp;lt; &lt;span style=&quot;color: #7f7f7f;&quot;&gt;n&lt;/span&gt; - &lt;span style=&quot;color: #c8c8c8;&quot;&gt;i&lt;/span&gt; - &lt;span style=&quot;color: #b5cea8;&quot;&gt;1&lt;/span&gt;&lt;/div&gt;" style="rhombus;whiteSpace=wrap;html=1;" vertex="1" parent="WIyWlLk6GJQsqaUBKTNV-1">
          <mxGeometry x="1020" y="-1060" width="130" height="80" as="geometry" />
        </mxCell>
        <mxCell id="eiXjgrz9EAbIEzw9EVBK-47" style="edgeStyle=orthogonalEdgeStyle;rounded=0;orthogonalLoop=1;jettySize=auto;html=1;" edge="1" parent="WIyWlLk6GJQsqaUBKTNV-1" source="eiXjgrz9EAbIEzw9EVBK-48">
          <mxGeometry relative="1" as="geometry">
            <mxPoint x="840" y="-1020" as="targetPoint" />
          </mxGeometry>
        </mxCell>
        <mxCell id="eiXjgrz9EAbIEzw9EVBK-48" value="i++" style="whiteSpace=wrap;html=1;" vertex="1" parent="WIyWlLk6GJQsqaUBKTNV-1">
          <mxGeometry x="1025" y="-1210" width="120" height="60" as="geometry" />
        </mxCell>
        <mxCell id="eiXjgrz9EAbIEzw9EVBK-49" value="a[i]" style="shape=parallelogram;perimeter=parallelogramPerimeter;whiteSpace=wrap;html=1;fixedSize=1;" vertex="1" parent="WIyWlLk6GJQsqaUBKTNV-1">
          <mxGeometry x="840" y="-670" width="120" height="60" as="geometry" />
        </mxCell>
        <mxCell id="eiXjgrz9EAbIEzw9EVBK-50" value="" style="edgeStyle=orthogonalEdgeStyle;rounded=0;orthogonalLoop=1;jettySize=auto;html=1;" edge="1" parent="WIyWlLk6GJQsqaUBKTNV-1" source="eiXjgrz9EAbIEzw9EVBK-51" target="eiXjgrz9EAbIEzw9EVBK-53">
          <mxGeometry relative="1" as="geometry" />
        </mxCell>
        <mxCell id="eiXjgrz9EAbIEzw9EVBK-51" value="choice" style="shape=parallelogram;perimeter=parallelogramPerimeter;whiteSpace=wrap;html=1;fixedSize=1;" vertex="1" parent="WIyWlLk6GJQsqaUBKTNV-1">
          <mxGeometry x="354" y="489.99999999999955" width="120" height="60" as="geometry" />
        </mxCell>
        <mxCell id="eiXjgrz9EAbIEzw9EVBK-52" value="" style="edgeStyle=orthogonalEdgeStyle;rounded=0;orthogonalLoop=1;jettySize=auto;html=1;" edge="1" parent="WIyWlLk6GJQsqaUBKTNV-1" source="eiXjgrz9EAbIEzw9EVBK-53" target="eiXjgrz9EAbIEzw9EVBK-75">
          <mxGeometry relative="1" as="geometry" />
        </mxCell>
        <mxCell id="eiXjgrz9EAbIEzw9EVBK-53" value="choice==1" style="rhombus;whiteSpace=wrap;html=1;" vertex="1" parent="WIyWlLk6GJQsqaUBKTNV-1">
          <mxGeometry x="374" y="619.9999999999995" width="80" height="80" as="geometry" />
        </mxCell>
        <mxCell id="eiXjgrz9EAbIEzw9EVBK-54" value="" style="edgeStyle=orthogonalEdgeStyle;rounded=0;orthogonalLoop=1;jettySize=auto;html=1;exitX=0.5;exitY=1;exitDx=0;exitDy=0;" edge="1" parent="WIyWlLk6GJQsqaUBKTNV-1" source="eiXjgrz9EAbIEzw9EVBK-53" target="eiXjgrz9EAbIEzw9EVBK-57">
          <mxGeometry relative="1" as="geometry">
            <mxPoint x="414" y="700" as="sourcePoint" />
          </mxGeometry>
        </mxCell>
        <mxCell id="eiXjgrz9EAbIEzw9EVBK-55" value="false" style="edgeLabel;html=1;align=center;verticalAlign=middle;resizable=0;points=[];" vertex="1" connectable="0" parent="eiXjgrz9EAbIEzw9EVBK-54">
          <mxGeometry x="0.0449" relative="1" as="geometry">
            <mxPoint y="-1" as="offset" />
          </mxGeometry>
        </mxCell>
        <mxCell id="eiXjgrz9EAbIEzw9EVBK-56" style="edgeStyle=orthogonalEdgeStyle;rounded=0;orthogonalLoop=1;jettySize=auto;html=1;" edge="1" parent="WIyWlLk6GJQsqaUBKTNV-1" source="eiXjgrz9EAbIEzw9EVBK-57" target="eiXjgrz9EAbIEzw9EVBK-85">
          <mxGeometry relative="1" as="geometry" />
        </mxCell>
        <mxCell id="eiXjgrz9EAbIEzw9EVBK-57" value="choice==2" style="rhombus;whiteSpace=wrap;html=1;" vertex="1" parent="WIyWlLk6GJQsqaUBKTNV-1">
          <mxGeometry x="374" y="959.9999999999995" width="80" height="80" as="geometry" />
        </mxCell>
        <mxCell id="eiXjgrz9EAbIEzw9EVBK-58" value="" style="edgeStyle=orthogonalEdgeStyle;rounded=0;orthogonalLoop=1;jettySize=auto;html=1;exitX=0.5;exitY=1;exitDx=0;exitDy=0;" edge="1" parent="WIyWlLk6GJQsqaUBKTNV-1" source="eiXjgrz9EAbIEzw9EVBK-57" target="eiXjgrz9EAbIEzw9EVBK-60">
          <mxGeometry relative="1" as="geometry">
            <mxPoint x="414" y="1070" as="sourcePoint" />
          </mxGeometry>
        </mxCell>
        <mxCell id="eiXjgrz9EAbIEzw9EVBK-59" value="" style="edgeStyle=orthogonalEdgeStyle;rounded=0;orthogonalLoop=1;jettySize=auto;html=1;" edge="1" parent="WIyWlLk6GJQsqaUBKTNV-1" source="eiXjgrz9EAbIEzw9EVBK-60" target="eiXjgrz9EAbIEzw9EVBK-93">
          <mxGeometry relative="1" as="geometry" />
        </mxCell>
        <mxCell id="eiXjgrz9EAbIEzw9EVBK-60" value="choice==3" style="rhombus;whiteSpace=wrap;html=1;" vertex="1" parent="WIyWlLk6GJQsqaUBKTNV-1">
          <mxGeometry x="374" y="1349.9999999999995" width="80" height="80" as="geometry" />
        </mxCell>
        <mxCell id="eiXjgrz9EAbIEzw9EVBK-61" value="" style="edgeStyle=orthogonalEdgeStyle;rounded=0;orthogonalLoop=1;jettySize=auto;html=1;exitX=0.5;exitY=1;exitDx=0;exitDy=0;" edge="1" parent="WIyWlLk6GJQsqaUBKTNV-1" source="eiXjgrz9EAbIEzw9EVBK-60" target="eiXjgrz9EAbIEzw9EVBK-63">
          <mxGeometry relative="1" as="geometry">
            <mxPoint x="414" y="1500" as="sourcePoint" />
          </mxGeometry>
        </mxCell>
        <mxCell id="eiXjgrz9EAbIEzw9EVBK-62" value="" style="edgeStyle=orthogonalEdgeStyle;rounded=0;orthogonalLoop=1;jettySize=auto;html=1;" edge="1" parent="WIyWlLk6GJQsqaUBKTNV-1" source="eiXjgrz9EAbIEzw9EVBK-63" target="eiXjgrz9EAbIEzw9EVBK-115">
          <mxGeometry relative="1" as="geometry" />
        </mxCell>
        <mxCell id="eiXjgrz9EAbIEzw9EVBK-63" value="choice==4" style="rhombus;whiteSpace=wrap;html=1;" vertex="1" parent="WIyWlLk6GJQsqaUBKTNV-1">
          <mxGeometry x="373" y="1749.9999999999995" width="80" height="80" as="geometry" />
        </mxCell>
        <mxCell id="eiXjgrz9EAbIEzw9EVBK-64" value="" style="edgeStyle=orthogonalEdgeStyle;rounded=0;orthogonalLoop=1;jettySize=auto;html=1;exitX=0.5;exitY=1;exitDx=0;exitDy=0;" edge="1" parent="WIyWlLk6GJQsqaUBKTNV-1" source="eiXjgrz9EAbIEzw9EVBK-63" target="eiXjgrz9EAbIEzw9EVBK-66">
          <mxGeometry relative="1" as="geometry">
            <mxPoint x="413" y="1870" as="sourcePoint" />
          </mxGeometry>
        </mxCell>
        <mxCell id="eiXjgrz9EAbIEzw9EVBK-65" value="" style="edgeStyle=orthogonalEdgeStyle;rounded=0;orthogonalLoop=1;jettySize=auto;html=1;" edge="1" parent="WIyWlLk6GJQsqaUBKTNV-1" source="eiXjgrz9EAbIEzw9EVBK-66" target="eiXjgrz9EAbIEzw9EVBK-118">
          <mxGeometry relative="1" as="geometry" />
        </mxCell>
        <mxCell id="eiXjgrz9EAbIEzw9EVBK-66" value="choice==5" style="rhombus;whiteSpace=wrap;html=1;" vertex="1" parent="WIyWlLk6GJQsqaUBKTNV-1">
          <mxGeometry x="373" y="2129.9999999999995" width="80" height="80" as="geometry" />
        </mxCell>
        <mxCell id="eiXjgrz9EAbIEzw9EVBK-67" value="false" style="edgeLabel;html=1;align=center;verticalAlign=middle;resizable=0;points=[];" vertex="1" connectable="0" parent="WIyWlLk6GJQsqaUBKTNV-1">
          <mxGeometry x="424" y="1330.0028571428575" as="geometry">
            <mxPoint x="-10" y="150" as="offset" />
          </mxGeometry>
        </mxCell>
        <mxCell id="eiXjgrz9EAbIEzw9EVBK-68" value="false" style="edgeLabel;html=1;align=center;verticalAlign=middle;resizable=0;points=[];" vertex="1" connectable="0" parent="WIyWlLk6GJQsqaUBKTNV-1">
          <mxGeometry x="320" y="770.0028571428574" as="geometry">
            <mxPoint x="89" y="307" as="offset" />
          </mxGeometry>
        </mxCell>
        <mxCell id="eiXjgrz9EAbIEzw9EVBK-69" value="false" style="edgeLabel;html=1;align=center;verticalAlign=middle;resizable=0;points=[];" vertex="1" connectable="0" parent="WIyWlLk6GJQsqaUBKTNV-1">
          <mxGeometry x="320" y="1580.0028571428575" as="geometry">
            <mxPoint x="89" y="307" as="offset" />
          </mxGeometry>
        </mxCell>
        <mxCell id="eiXjgrz9EAbIEzw9EVBK-70" value="" style="edgeStyle=orthogonalEdgeStyle;rounded=0;orthogonalLoop=1;jettySize=auto;html=1;exitX=0.5;exitY=1;exitDx=0;exitDy=0;" edge="1" parent="WIyWlLk6GJQsqaUBKTNV-1" source="eiXjgrz9EAbIEzw9EVBK-66" target="eiXjgrz9EAbIEzw9EVBK-73">
          <mxGeometry relative="1" as="geometry">
            <mxPoint x="413" y="2220" as="sourcePoint" />
          </mxGeometry>
        </mxCell>
        <mxCell id="eiXjgrz9EAbIEzw9EVBK-71" style="edgeStyle=orthogonalEdgeStyle;rounded=0;orthogonalLoop=1;jettySize=auto;html=1;" edge="1" parent="WIyWlLk6GJQsqaUBKTNV-1" source="eiXjgrz9EAbIEzw9EVBK-73" target="eiXjgrz9EAbIEzw9EVBK-127">
          <mxGeometry relative="1" as="geometry" />
        </mxCell>
        <mxCell id="eiXjgrz9EAbIEzw9EVBK-72" value="" style="edgeStyle=orthogonalEdgeStyle;rounded=0;orthogonalLoop=1;jettySize=auto;html=1;" edge="1" parent="WIyWlLk6GJQsqaUBKTNV-1" source="eiXjgrz9EAbIEzw9EVBK-73" target="eiXjgrz9EAbIEzw9EVBK-138">
          <mxGeometry relative="1" as="geometry" />
        </mxCell>
        <mxCell id="eiXjgrz9EAbIEzw9EVBK-73" value="choice==6" style="rhombus;whiteSpace=wrap;html=1;" vertex="1" parent="WIyWlLk6GJQsqaUBKTNV-1">
          <mxGeometry x="373" y="2801.9999999999995" width="80" height="80" as="geometry" />
        </mxCell>
        <mxCell id="eiXjgrz9EAbIEzw9EVBK-74" value="" style="edgeStyle=orthogonalEdgeStyle;rounded=0;orthogonalLoop=1;jettySize=auto;html=1;" edge="1" parent="WIyWlLk6GJQsqaUBKTNV-1" source="eiXjgrz9EAbIEzw9EVBK-75" target="eiXjgrz9EAbIEzw9EVBK-78">
          <mxGeometry relative="1" as="geometry" />
        </mxCell>
        <mxCell id="eiXjgrz9EAbIEzw9EVBK-75" value="n&lt;br&gt;i=0" style="shape=parallelogram;perimeter=parallelogramPerimeter;whiteSpace=wrap;html=1;fixedSize=1;" vertex="1" parent="WIyWlLk6GJQsqaUBKTNV-1">
          <mxGeometry x="514" y="629.9999999999995" width="120" height="60" as="geometry" />
        </mxCell>
        <mxCell id="eiXjgrz9EAbIEzw9EVBK-76" value="" style="edgeStyle=orthogonalEdgeStyle;rounded=0;orthogonalLoop=1;jettySize=auto;html=1;" edge="1" parent="WIyWlLk6GJQsqaUBKTNV-1" source="eiXjgrz9EAbIEzw9EVBK-78" target="eiXjgrz9EAbIEzw9EVBK-80">
          <mxGeometry relative="1" as="geometry" />
        </mxCell>
        <mxCell id="eiXjgrz9EAbIEzw9EVBK-77" style="edgeStyle=orthogonalEdgeStyle;rounded=0;orthogonalLoop=1;jettySize=auto;html=1;" edge="1" parent="WIyWlLk6GJQsqaUBKTNV-1" source="eiXjgrz9EAbIEzw9EVBK-78">
          <mxGeometry relative="1" as="geometry">
            <mxPoint x="420" y="450" as="targetPoint" />
            <Array as="points">
              <mxPoint x="775" y="790" />
              <mxPoint x="1670" y="790" />
              <mxPoint x="1670" y="180" />
              <mxPoint x="630" y="180" />
              <mxPoint x="630" y="450" />
            </Array>
          </mxGeometry>
        </mxCell>
        <mxCell id="eiXjgrz9EAbIEzw9EVBK-78" value="i&amp;lt;n" style="rhombus;whiteSpace=wrap;html=1;" vertex="1" parent="WIyWlLk6GJQsqaUBKTNV-1">
          <mxGeometry x="734" y="619.9999999999995" width="80" height="80" as="geometry" />
        </mxCell>
        <mxCell id="eiXjgrz9EAbIEzw9EVBK-79" value="" style="edgeStyle=orthogonalEdgeStyle;rounded=0;orthogonalLoop=1;jettySize=auto;html=1;" edge="1" parent="WIyWlLk6GJQsqaUBKTNV-1" source="eiXjgrz9EAbIEzw9EVBK-80" target="eiXjgrz9EAbIEzw9EVBK-82">
          <mxGeometry relative="1" as="geometry" />
        </mxCell>
        <mxCell id="eiXjgrz9EAbIEzw9EVBK-80" value="a[i]&lt;br&gt;current++" style="shape=parallelogram;perimeter=parallelogramPerimeter;whiteSpace=wrap;html=1;fixedSize=1;" vertex="1" parent="WIyWlLk6GJQsqaUBKTNV-1">
          <mxGeometry x="874" y="629.9999999999995" width="120" height="60" as="geometry" />
        </mxCell>
        <mxCell id="eiXjgrz9EAbIEzw9EVBK-81" style="edgeStyle=orthogonalEdgeStyle;rounded=0;orthogonalLoop=1;jettySize=auto;html=1;" edge="1" parent="WIyWlLk6GJQsqaUBKTNV-1" source="eiXjgrz9EAbIEzw9EVBK-82">
          <mxGeometry relative="1" as="geometry">
            <mxPoint x="690" y="650" as="targetPoint" />
            <Array as="points">
              <mxPoint x="1134" y="511" />
              <mxPoint x="1130" y="511" />
              <mxPoint x="1130" y="500" />
              <mxPoint x="690" y="500" />
            </Array>
          </mxGeometry>
        </mxCell>
        <mxCell id="eiXjgrz9EAbIEzw9EVBK-82" value="i++" style="whiteSpace=wrap;html=1;" vertex="1" parent="WIyWlLk6GJQsqaUBKTNV-1">
          <mxGeometry x="1074" y="629.9999999999995" width="120" height="60" as="geometry" />
        </mxCell>
        <mxCell id="eiXjgrz9EAbIEzw9EVBK-83" value="" style="edgeStyle=orthogonalEdgeStyle;rounded=0;orthogonalLoop=1;jettySize=auto;html=1;" edge="1" parent="WIyWlLk6GJQsqaUBKTNV-1" source="eiXjgrz9EAbIEzw9EVBK-85" target="eiXjgrz9EAbIEzw9EVBK-87">
          <mxGeometry relative="1" as="geometry" />
        </mxCell>
        <mxCell id="eiXjgrz9EAbIEzw9EVBK-84" style="edgeStyle=orthogonalEdgeStyle;rounded=0;orthogonalLoop=1;jettySize=auto;html=1;" edge="1" parent="WIyWlLk6GJQsqaUBKTNV-1" source="eiXjgrz9EAbIEzw9EVBK-85">
          <mxGeometry relative="1" as="geometry">
            <mxPoint x="1670" y="740" as="targetPoint" />
            <Array as="points">
              <mxPoint x="580" y="1170" />
              <mxPoint x="1670" y="1170" />
            </Array>
          </mxGeometry>
        </mxCell>
        <mxCell id="eiXjgrz9EAbIEzw9EVBK-85" value="n&lt;br&gt;i=0" style="shape=parallelogram;perimeter=parallelogramPerimeter;whiteSpace=wrap;html=1;fixedSize=1;" vertex="1" parent="WIyWlLk6GJQsqaUBKTNV-1">
          <mxGeometry x="520" y="979.9999999999995" width="120" height="60" as="geometry" />
        </mxCell>
        <mxCell id="eiXjgrz9EAbIEzw9EVBK-86" value="" style="edgeStyle=orthogonalEdgeStyle;rounded=0;orthogonalLoop=1;jettySize=auto;html=1;" edge="1" parent="WIyWlLk6GJQsqaUBKTNV-1" source="eiXjgrz9EAbIEzw9EVBK-87" target="eiXjgrz9EAbIEzw9EVBK-89">
          <mxGeometry relative="1" as="geometry" />
        </mxCell>
        <mxCell id="eiXjgrz9EAbIEzw9EVBK-87" value="i&amp;lt;n" style="rhombus;whiteSpace=wrap;html=1;" vertex="1" parent="WIyWlLk6GJQsqaUBKTNV-1">
          <mxGeometry x="740" y="969.9999999999995" width="80" height="80" as="geometry" />
        </mxCell>
        <mxCell id="eiXjgrz9EAbIEzw9EVBK-88" value="" style="edgeStyle=orthogonalEdgeStyle;rounded=0;orthogonalLoop=1;jettySize=auto;html=1;" edge="1" parent="WIyWlLk6GJQsqaUBKTNV-1" source="eiXjgrz9EAbIEzw9EVBK-89" target="eiXjgrz9EAbIEzw9EVBK-91">
          <mxGeometry relative="1" as="geometry" />
        </mxCell>
        <mxCell id="eiXjgrz9EAbIEzw9EVBK-89" value="a[i]" style="shape=parallelogram;perimeter=parallelogramPerimeter;whiteSpace=wrap;html=1;fixedSize=1;" vertex="1" parent="WIyWlLk6GJQsqaUBKTNV-1">
          <mxGeometry x="880" y="979.9999999999995" width="120" height="60" as="geometry" />
        </mxCell>
        <mxCell id="eiXjgrz9EAbIEzw9EVBK-90" style="edgeStyle=orthogonalEdgeStyle;rounded=0;orthogonalLoop=1;jettySize=auto;html=1;" edge="1" parent="WIyWlLk6GJQsqaUBKTNV-1" source="eiXjgrz9EAbIEzw9EVBK-91">
          <mxGeometry relative="1" as="geometry">
            <mxPoint x="696" y="1000" as="targetPoint" />
            <Array as="points">
              <mxPoint x="1140" y="861" />
              <mxPoint x="1136" y="861" />
              <mxPoint x="1136" y="850" />
              <mxPoint x="696" y="850" />
            </Array>
          </mxGeometry>
        </mxCell>
        <mxCell id="eiXjgrz9EAbIEzw9EVBK-91" value="i++" style="whiteSpace=wrap;html=1;" vertex="1" parent="WIyWlLk6GJQsqaUBKTNV-1">
          <mxGeometry x="1080" y="979.9999999999995" width="120" height="60" as="geometry" />
        </mxCell>
        <mxCell id="eiXjgrz9EAbIEzw9EVBK-92" value="" style="edgeStyle=orthogonalEdgeStyle;rounded=0;orthogonalLoop=1;jettySize=auto;html=1;" edge="1" parent="WIyWlLk6GJQsqaUBKTNV-1" source="eiXjgrz9EAbIEzw9EVBK-93" target="eiXjgrz9EAbIEzw9EVBK-96">
          <mxGeometry relative="1" as="geometry" />
        </mxCell>
        <mxCell id="eiXjgrz9EAbIEzw9EVBK-93" value="&lt;br&gt;&lt;div style=&quot;color: rgb(212, 212, 212); background-color: rgb(30, 30, 30); font-family: Consolas, &amp;quot;Courier New&amp;quot;, monospace; font-weight: normal; font-size: 14px; line-height: 19px;&quot;&gt;&lt;div&gt;&lt;span style=&quot;color: #c8c8c8;&quot;&gt;add_value&lt;/span&gt;&lt;/div&gt;&lt;div&gt;&lt;div style=&quot;line-height: 19px;&quot;&gt;add_index&lt;/div&gt;&lt;/div&gt;&lt;div style=&quot;line-height: 19px;&quot;&gt;&lt;br&gt;&lt;/div&gt;&lt;/div&gt;" style="shape=parallelogram;perimeter=parallelogramPerimeter;whiteSpace=wrap;html=1;fixedSize=1;" vertex="1" parent="WIyWlLk6GJQsqaUBKTNV-1">
          <mxGeometry x="530" y="1340" width="176" height="100" as="geometry" />
        </mxCell>
        <mxCell id="eiXjgrz9EAbIEzw9EVBK-94" value="" style="edgeStyle=orthogonalEdgeStyle;rounded=0;orthogonalLoop=1;jettySize=auto;html=1;" edge="1" parent="WIyWlLk6GJQsqaUBKTNV-1" source="eiXjgrz9EAbIEzw9EVBK-96" target="eiXjgrz9EAbIEzw9EVBK-98">
          <mxGeometry relative="1" as="geometry" />
        </mxCell>
        <mxCell id="eiXjgrz9EAbIEzw9EVBK-95" value="" style="edgeStyle=orthogonalEdgeStyle;rounded=0;orthogonalLoop=1;jettySize=auto;html=1;" edge="1" parent="WIyWlLk6GJQsqaUBKTNV-1" source="eiXjgrz9EAbIEzw9EVBK-96" target="eiXjgrz9EAbIEzw9EVBK-113">
          <mxGeometry relative="1" as="geometry" />
        </mxCell>
        <mxCell id="eiXjgrz9EAbIEzw9EVBK-96" value="&#xa;&lt;div style=&quot;color: rgb(212, 212, 212); background-color: rgb(30, 30, 30); font-family: Consolas, &amp;quot;Courier New&amp;quot;, monospace; font-weight: normal; font-size: 14px; line-height: 19px;&quot;&gt;&lt;div&gt;&lt;span style=&quot;color: #c8c8c8;&quot;&gt;add_index&lt;/span&gt;&lt;span style=&quot;color: #d4d4d4;&quot;&gt; &amp;lt; &lt;/span&gt;&lt;span style=&quot;color: #c8c8c8;&quot;&gt;current&lt;/span&gt;&lt;/div&gt;&lt;/div&gt;&#xa;&#xa;" style="rhombus;whiteSpace=wrap;html=1;" vertex="1" parent="WIyWlLk6GJQsqaUBKTNV-1">
          <mxGeometry x="839" y="1330" width="186" height="120" as="geometry" />
        </mxCell>
        <mxCell id="eiXjgrz9EAbIEzw9EVBK-97" value="" style="edgeStyle=orthogonalEdgeStyle;rounded=0;orthogonalLoop=1;jettySize=auto;html=1;" edge="1" parent="WIyWlLk6GJQsqaUBKTNV-1" source="eiXjgrz9EAbIEzw9EVBK-98" target="eiXjgrz9EAbIEzw9EVBK-101">
          <mxGeometry relative="1" as="geometry" />
        </mxCell>
        <mxCell id="eiXjgrz9EAbIEzw9EVBK-98" value="i=0" style="whiteSpace=wrap;html=1;" vertex="1" parent="WIyWlLk6GJQsqaUBKTNV-1">
          <mxGeometry x="1138" y="1360" width="120" height="60" as="geometry" />
        </mxCell>
        <mxCell id="eiXjgrz9EAbIEzw9EVBK-99" value="" style="edgeStyle=orthogonalEdgeStyle;rounded=0;orthogonalLoop=1;jettySize=auto;html=1;" edge="1" parent="WIyWlLk6GJQsqaUBKTNV-1" source="eiXjgrz9EAbIEzw9EVBK-101" target="eiXjgrz9EAbIEzw9EVBK-103">
          <mxGeometry relative="1" as="geometry" />
        </mxCell>
        <mxCell id="eiXjgrz9EAbIEzw9EVBK-100" value="" style="edgeStyle=orthogonalEdgeStyle;rounded=0;orthogonalLoop=1;jettySize=auto;html=1;" edge="1" parent="WIyWlLk6GJQsqaUBKTNV-1" source="eiXjgrz9EAbIEzw9EVBK-101" target="eiXjgrz9EAbIEzw9EVBK-111">
          <mxGeometry relative="1" as="geometry" />
        </mxCell>
        <mxCell id="eiXjgrz9EAbIEzw9EVBK-101" value="&#xa;&lt;div style=&quot;color: rgb(212, 212, 212); background-color: rgb(30, 30, 30); font-family: Consolas, &amp;quot;Courier New&amp;quot;, monospace; font-weight: normal; font-size: 14px; line-height: 19px;&quot;&gt;&lt;div&gt;&lt;span style=&quot;color: #c8c8c8;&quot;&gt;i&lt;/span&gt;&lt;span style=&quot;color: #d4d4d4;&quot;&gt; &amp;gt;= &lt;/span&gt;&lt;span style=&quot;color: #c8c8c8;&quot;&gt;add_index&lt;/span&gt;&lt;/div&gt;&lt;/div&gt;&#xa;&#xa;" style="rhombus;whiteSpace=wrap;html=1;" vertex="1" parent="WIyWlLk6GJQsqaUBKTNV-1">
          <mxGeometry x="1358" y="1350" width="152" height="90" as="geometry" />
        </mxCell>
        <mxCell id="eiXjgrz9EAbIEzw9EVBK-102" value="" style="edgeStyle=orthogonalEdgeStyle;rounded=0;orthogonalLoop=1;jettySize=auto;html=1;" edge="1" parent="WIyWlLk6GJQsqaUBKTNV-1" source="eiXjgrz9EAbIEzw9EVBK-103" target="eiXjgrz9EAbIEzw9EVBK-105">
          <mxGeometry relative="1" as="geometry" />
        </mxCell>
        <mxCell id="eiXjgrz9EAbIEzw9EVBK-103" value="&#xa;&lt;div style=&quot;color: rgb(212, 212, 212); background-color: rgb(30, 30, 30); font-family: Consolas, &amp;quot;Courier New&amp;quot;, monospace; font-weight: normal; font-size: 14px; line-height: 19px;&quot;&gt;&lt;div&gt;&lt;span style=&quot;color: #c8c8c8;&quot;&gt;a&lt;/span&gt;&lt;span style=&quot;color: #d4d4d4;&quot;&gt;[&lt;/span&gt;&lt;span style=&quot;color: #c8c8c8;&quot;&gt;i&lt;/span&gt;&lt;span style=&quot;color: #d4d4d4;&quot;&gt;] = &lt;/span&gt;&lt;span style=&quot;color: #c8c8c8;&quot;&gt;a&lt;/span&gt;&lt;span style=&quot;color: #d4d4d4;&quot;&gt;[&lt;/span&gt;&lt;span style=&quot;color: #c8c8c8;&quot;&gt;i&lt;/span&gt;&lt;span style=&quot;color: #d4d4d4;&quot;&gt; - &lt;/span&gt;&lt;span style=&quot;color: #b5cea8;&quot;&gt;1&lt;/span&gt;&lt;span style=&quot;color: #d4d4d4;&quot;&gt;];&lt;/span&gt;&lt;/div&gt;&lt;/div&gt;&#xa;&#xa;" style="whiteSpace=wrap;html=1;" vertex="1" parent="WIyWlLk6GJQsqaUBKTNV-1">
          <mxGeometry x="1606" y="1365" width="154" height="65" as="geometry" />
        </mxCell>
        <mxCell id="eiXjgrz9EAbIEzw9EVBK-104" value="" style="edgeStyle=orthogonalEdgeStyle;rounded=0;orthogonalLoop=1;jettySize=auto;html=1;" edge="1" parent="WIyWlLk6GJQsqaUBKTNV-1" source="eiXjgrz9EAbIEzw9EVBK-105" target="eiXjgrz9EAbIEzw9EVBK-109">
          <mxGeometry relative="1" as="geometry">
            <mxPoint x="2050" y="1404" as="targetPoint" />
          </mxGeometry>
        </mxCell>
        <mxCell id="eiXjgrz9EAbIEzw9EVBK-105" value="&#xa;&lt;div style=&quot;color: rgb(212, 212, 212); background-color: rgb(30, 30, 30); font-family: Consolas, &amp;quot;Courier New&amp;quot;, monospace; font-weight: normal; font-size: 14px; line-height: 19px;&quot;&gt;&lt;div&gt;&lt;span style=&quot;color: #c8c8c8;&quot;&gt;i&lt;/span&gt;&lt;span style=&quot;color: #d4d4d4;&quot;&gt; == &lt;/span&gt;&lt;span style=&quot;color: #c8c8c8;&quot;&gt;add_index&lt;/span&gt;&lt;/div&gt;&lt;/div&gt;&#xa;&#xa;" style="rhombus;whiteSpace=wrap;html=1;" vertex="1" parent="WIyWlLk6GJQsqaUBKTNV-1">
          <mxGeometry x="1877" y="1357.5" width="113" height="92.5" as="geometry" />
        </mxCell>
        <mxCell id="eiXjgrz9EAbIEzw9EVBK-106" style="edgeStyle=orthogonalEdgeStyle;rounded=0;orthogonalLoop=1;jettySize=auto;html=1;" edge="1" parent="WIyWlLk6GJQsqaUBKTNV-1" source="eiXjgrz9EAbIEzw9EVBK-107">
          <mxGeometry relative="1" as="geometry">
            <mxPoint x="1310" y="1400" as="targetPoint" />
            <Array as="points">
              <mxPoint x="2360" y="1280" />
              <mxPoint x="1310" y="1280" />
            </Array>
          </mxGeometry>
        </mxCell>
        <mxCell id="eiXjgrz9EAbIEzw9EVBK-107" value="i--" style="whiteSpace=wrap;html=1;" vertex="1" parent="WIyWlLk6GJQsqaUBKTNV-1">
          <mxGeometry x="2290" y="1370" width="120" height="60" as="geometry" />
        </mxCell>
        <mxCell id="eiXjgrz9EAbIEzw9EVBK-108" style="edgeStyle=orthogonalEdgeStyle;rounded=0;orthogonalLoop=1;jettySize=auto;html=1;entryX=0;entryY=0.5;entryDx=0;entryDy=0;" edge="1" parent="WIyWlLk6GJQsqaUBKTNV-1" source="eiXjgrz9EAbIEzw9EVBK-109" target="eiXjgrz9EAbIEzw9EVBK-107">
          <mxGeometry relative="1" as="geometry" />
        </mxCell>
        <mxCell id="eiXjgrz9EAbIEzw9EVBK-109" value="&#xa;&lt;div style=&quot;color: rgb(212, 212, 212); background-color: rgb(30, 30, 30); font-family: Consolas, &amp;quot;Courier New&amp;quot;, monospace; font-weight: normal; font-size: 14px; line-height: 19px;&quot;&gt;&lt;div&gt;&lt;span style=&quot;color: #d4d4d4;&quot;&gt;&amp;nbsp;&lt;/span&gt;&lt;span style=&quot;color: #c8c8c8;&quot;&gt;a&lt;/span&gt;&lt;span style=&quot;color: #d4d4d4;&quot;&gt;[&lt;/span&gt;&lt;span style=&quot;color: #c8c8c8;&quot;&gt;i&lt;/span&gt;&lt;span style=&quot;color: #d4d4d4;&quot;&gt;] = &lt;/span&gt;&lt;span style=&quot;color: #c8c8c8;&quot;&gt;add_value&lt;/span&gt;&lt;span style=&quot;color: #d4d4d4;&quot;&gt;;&lt;/span&gt;&lt;/div&gt;&lt;/div&gt;&#xa;&#xa;" style="rounded=1;whiteSpace=wrap;html=1;" vertex="1" parent="WIyWlLk6GJQsqaUBKTNV-1">
          <mxGeometry x="2066.9999999999995" y="1373.75" width="120" height="60" as="geometry" />
        </mxCell>
        <mxCell id="eiXjgrz9EAbIEzw9EVBK-110" style="edgeStyle=orthogonalEdgeStyle;rounded=0;orthogonalLoop=1;jettySize=auto;html=1;" edge="1" parent="WIyWlLk6GJQsqaUBKTNV-1" source="eiXjgrz9EAbIEzw9EVBK-111">
          <mxGeometry relative="1" as="geometry">
            <mxPoint x="1670" y="820" as="targetPoint" />
            <Array as="points">
              <mxPoint x="2791" y="1568" />
              <mxPoint x="2791" y="820" />
            </Array>
          </mxGeometry>
        </mxCell>
        <mxCell id="eiXjgrz9EAbIEzw9EVBK-111" value="&#xa;&lt;div style=&quot;color: rgb(212, 212, 212); background-color: rgb(30, 30, 30); font-family: Consolas, &amp;quot;Courier New&amp;quot;, monospace; font-weight: normal; font-size: 14px; line-height: 19px;&quot;&gt;&lt;div&gt;&lt;span style=&quot;color: #d4d4d4;&quot;&gt;&amp;nbsp; &lt;/span&gt;&lt;span style=&quot;color: #c8c8c8;&quot;&gt;countArrange&lt;/span&gt;&lt;span style=&quot;color: #d4d4d4;&quot;&gt; = &lt;/span&gt;&lt;span style=&quot;color: #b5cea8;&quot;&gt;0&lt;/span&gt;&lt;span style=&quot;color: #d4d4d4;&quot;&gt;;&lt;/span&gt;&lt;/div&gt;&lt;/div&gt;&#xa;&#xa;" style="whiteSpace=wrap;html=1;" vertex="1" parent="WIyWlLk6GJQsqaUBKTNV-1">
          <mxGeometry x="1374" y="1535" width="166" height="65" as="geometry" />
        </mxCell>
        <mxCell id="eiXjgrz9EAbIEzw9EVBK-112" style="edgeStyle=orthogonalEdgeStyle;rounded=0;orthogonalLoop=1;jettySize=auto;html=1;entryX=0;entryY=0.5;entryDx=0;entryDy=0;" edge="1" parent="WIyWlLk6GJQsqaUBKTNV-1" source="eiXjgrz9EAbIEzw9EVBK-113" target="eiXjgrz9EAbIEzw9EVBK-111">
          <mxGeometry relative="1" as="geometry" />
        </mxCell>
        <mxCell id="eiXjgrz9EAbIEzw9EVBK-113" value="&#xa;&lt;div style=&quot;color: rgb(212, 212, 212); background-color: rgb(30, 30, 30); font-family: Consolas, &amp;quot;Courier New&amp;quot;, monospace; font-weight: normal; font-size: 14px; line-height: 19px;&quot;&gt;&lt;div&gt;&lt;span style=&quot;color: #d4d4d4;&quot;&gt;&amp;nbsp; &lt;/span&gt;&lt;span style=&quot;color: #c8c8c8;&quot;&gt;a&lt;/span&gt;&lt;span style=&quot;color: #d4d4d4;&quot;&gt;[&lt;/span&gt;&lt;span style=&quot;color: #c8c8c8;&quot;&gt;add_index&lt;/span&gt;&lt;span style=&quot;color: #d4d4d4;&quot;&gt;] = &lt;/span&gt;&lt;span style=&quot;color: #c8c8c8;&quot;&gt;add_value&lt;/span&gt;&lt;span style=&quot;color: #d4d4d4;&quot;&gt;;&lt;/span&gt;&lt;/div&gt;&lt;/div&gt;&#xa;&#xa;" style="whiteSpace=wrap;html=1;" vertex="1" parent="WIyWlLk6GJQsqaUBKTNV-1">
          <mxGeometry x="872" y="1560" width="120" height="60" as="geometry" />
        </mxCell>
        <mxCell id="eiXjgrz9EAbIEzw9EVBK-114" value="" style="edgeStyle=orthogonalEdgeStyle;rounded=0;orthogonalLoop=1;jettySize=auto;html=1;" edge="1" parent="WIyWlLk6GJQsqaUBKTNV-1" source="eiXjgrz9EAbIEzw9EVBK-115" target="eiXjgrz9EAbIEzw9EVBK-116">
          <mxGeometry relative="1" as="geometry" />
        </mxCell>
        <mxCell id="eiXjgrz9EAbIEzw9EVBK-115" value="&lt;br&gt;&lt;div style=&quot;color: rgb(212, 212, 212); background-color: rgb(30, 30, 30); font-family: Consolas, &amp;quot;Courier New&amp;quot;, monospace; font-weight: normal; font-size: 14px; line-height: 19px;&quot;&gt;&lt;div&gt;&lt;span style=&quot;color: #d4d4d4;&quot;&gt;&amp;nbsp; &lt;/span&gt;&lt;span style=&quot;color: #d4d4d4;&quot;&gt;&amp;nbsp;&lt;/span&gt;&lt;span style=&quot;color: #c8c8c8;&quot;&gt;update_index&lt;/span&gt;&lt;span style=&quot;color: #d4d4d4;&quot;&gt;, &lt;/span&gt;&lt;span style=&quot;color: #c8c8c8;&quot;&gt;update_value&lt;/span&gt;&lt;span style=&quot;color: #d4d4d4;&quot;&gt;;&lt;/span&gt;&lt;/div&gt;&lt;/div&gt;&lt;br&gt;" style="shape=parallelogram;perimeter=parallelogramPerimeter;whiteSpace=wrap;html=1;fixedSize=1;" vertex="1" parent="WIyWlLk6GJQsqaUBKTNV-1">
          <mxGeometry x="513" y="1760" width="267" height="80" as="geometry" />
        </mxCell>
        <mxCell id="eiXjgrz9EAbIEzw9EVBK-116" value="&#xa;&lt;div style=&quot;color: rgb(212, 212, 212); background-color: rgb(30, 30, 30); font-family: Consolas, &amp;quot;Courier New&amp;quot;, monospace; font-weight: normal; font-size: 14px; line-height: 19px;&quot;&gt;&lt;div&gt;&lt;span style=&quot;color: #c8c8c8;&quot;&gt;a&lt;/span&gt;&lt;span style=&quot;color: #d4d4d4;&quot;&gt;[&lt;/span&gt;&lt;span style=&quot;color: #c8c8c8;&quot;&gt;update_index&lt;/span&gt;&lt;span style=&quot;color: #d4d4d4;&quot;&gt;] = &lt;/span&gt;&lt;span style=&quot;color: #c8c8c8;&quot;&gt;update_value&lt;/span&gt;&lt;span style=&quot;color: #d4d4d4;&quot;&gt;;&lt;/span&gt;&lt;/div&gt;&lt;/div&gt;&#xa;&#xa;" style="whiteSpace=wrap;html=1;" vertex="1" parent="WIyWlLk6GJQsqaUBKTNV-1">
          <mxGeometry x="933.5" y="1770" width="236.5" height="60" as="geometry" />
        </mxCell>
        <mxCell id="eiXjgrz9EAbIEzw9EVBK-117" value="" style="edgeStyle=orthogonalEdgeStyle;rounded=0;orthogonalLoop=1;jettySize=auto;html=1;" edge="1" parent="WIyWlLk6GJQsqaUBKTNV-1" source="eiXjgrz9EAbIEzw9EVBK-118" target="eiXjgrz9EAbIEzw9EVBK-120">
          <mxGeometry relative="1" as="geometry" />
        </mxCell>
        <mxCell id="eiXjgrz9EAbIEzw9EVBK-118" value="deleteInxdex" style="shape=parallelogram;perimeter=parallelogramPerimeter;whiteSpace=wrap;html=1;fixedSize=1;" vertex="1" parent="WIyWlLk6GJQsqaUBKTNV-1">
          <mxGeometry x="513" y="2139.9999999999995" width="120" height="60" as="geometry" />
        </mxCell>
        <mxCell id="eiXjgrz9EAbIEzw9EVBK-119" value="" style="edgeStyle=orthogonalEdgeStyle;rounded=0;orthogonalLoop=1;jettySize=auto;html=1;" edge="1" parent="WIyWlLk6GJQsqaUBKTNV-1" source="eiXjgrz9EAbIEzw9EVBK-120" target="eiXjgrz9EAbIEzw9EVBK-123">
          <mxGeometry relative="1" as="geometry" />
        </mxCell>
        <mxCell id="eiXjgrz9EAbIEzw9EVBK-120" value="&#xa;&lt;div style=&quot;color: rgb(212, 212, 212); background-color: rgb(30, 30, 30); font-family: Consolas, &amp;quot;Courier New&amp;quot;, monospace; font-weight: normal; font-size: 14px; line-height: 19px;&quot;&gt;&lt;div&gt;&lt;span style=&quot;color: #c8c8c8;&quot;&gt;i&lt;/span&gt;&lt;span style=&quot;color: #d4d4d4;&quot;&gt; = &lt;/span&gt;&lt;span style=&quot;color: #c8c8c8;&quot;&gt;delete_index&lt;/span&gt;&lt;span style=&quot;color: #d4d4d4;&quot;&gt; - &lt;/span&gt;&lt;span style=&quot;color: #b5cea8;&quot;&gt;1&lt;/span&gt;&lt;span style=&quot;color: #d4d4d4;&quot;&gt;;&lt;/span&gt;&lt;/div&gt;&lt;/div&gt;&#xa;&#xa;" style="whiteSpace=wrap;html=1;" vertex="1" parent="WIyWlLk6GJQsqaUBKTNV-1">
          <mxGeometry x="713" y="2140" width="197" height="70" as="geometry" />
        </mxCell>
        <mxCell id="eiXjgrz9EAbIEzw9EVBK-121" value="" style="edgeStyle=orthogonalEdgeStyle;rounded=0;orthogonalLoop=1;jettySize=auto;html=1;" edge="1" parent="WIyWlLk6GJQsqaUBKTNV-1" source="eiXjgrz9EAbIEzw9EVBK-123" target="eiXjgrz9EAbIEzw9EVBK-125">
          <mxGeometry relative="1" as="geometry" />
        </mxCell>
        <mxCell id="eiXjgrz9EAbIEzw9EVBK-122" style="edgeStyle=orthogonalEdgeStyle;rounded=0;orthogonalLoop=1;jettySize=auto;html=1;" edge="1" parent="WIyWlLk6GJQsqaUBKTNV-1" source="eiXjgrz9EAbIEzw9EVBK-123">
          <mxGeometry relative="1" as="geometry">
            <mxPoint x="2795" y="1470" as="targetPoint" />
            <Array as="points">
              <mxPoint x="1114" y="2400" />
              <mxPoint x="2795" y="2400" />
            </Array>
          </mxGeometry>
        </mxCell>
        <mxCell id="eiXjgrz9EAbIEzw9EVBK-123" value="&#xa;&lt;div style=&quot;color: rgb(212, 212, 212); background-color: rgb(30, 30, 30); font-family: Consolas, &amp;quot;Courier New&amp;quot;, monospace; font-weight: normal; font-size: 14px; line-height: 19px;&quot;&gt;&lt;div&gt;&lt;span style=&quot;color: #c8c8c8;&quot;&gt;i&lt;/span&gt;&lt;span style=&quot;color: #d4d4d4;&quot;&gt; &amp;lt; &lt;/span&gt;&lt;span style=&quot;color: #c8c8c8;&quot;&gt;current&lt;/span&gt;&lt;span style=&quot;color: #d4d4d4;&quot;&gt; - &lt;/span&gt;&lt;span style=&quot;color: #b5cea8;&quot;&gt;1&lt;/span&gt;&lt;span style=&quot;color: #d4d4d4;&quot;&gt;;&lt;/span&gt;&lt;/div&gt;&lt;/div&gt;&#xa;&#xa;" style="rhombus;whiteSpace=wrap;html=1;" vertex="1" parent="WIyWlLk6GJQsqaUBKTNV-1">
          <mxGeometry x="1048.5" y="2135" width="131.5" height="105" as="geometry" />
        </mxCell>
        <mxCell id="eiXjgrz9EAbIEzw9EVBK-124" style="edgeStyle=orthogonalEdgeStyle;rounded=0;orthogonalLoop=1;jettySize=auto;html=1;" edge="1" parent="WIyWlLk6GJQsqaUBKTNV-1" source="eiXjgrz9EAbIEzw9EVBK-125">
          <mxGeometry relative="1" as="geometry">
            <mxPoint x="1010" y="2179" as="targetPoint" />
            <Array as="points">
              <mxPoint x="1353" y="2090" />
              <mxPoint x="1010" y="2090" />
            </Array>
          </mxGeometry>
        </mxCell>
        <mxCell id="eiXjgrz9EAbIEzw9EVBK-125" value="&lt;br&gt;&lt;div style=&quot;color: rgb(212, 212, 212); background-color: rgb(30, 30, 30); font-family: Consolas, &amp;quot;Courier New&amp;quot;, monospace; font-weight: normal; font-size: 14px; line-height: 19px;&quot;&gt;&lt;div&gt;&lt;span style=&quot;color: #d4d4d4;&quot;&gt;&amp;nbsp;&lt;/span&gt;&lt;span style=&quot;color: #c8c8c8;&quot;&gt;a&lt;/span&gt;&lt;span style=&quot;color: #d4d4d4;&quot;&gt;[&lt;/span&gt;&lt;span style=&quot;color: #c8c8c8;&quot;&gt;i&lt;/span&gt;&lt;span style=&quot;color: #d4d4d4;&quot;&gt;] = &lt;/span&gt;&lt;span style=&quot;color: #c8c8c8;&quot;&gt;a&lt;/span&gt;&lt;span style=&quot;color: #d4d4d4;&quot;&gt;[&lt;/span&gt;&lt;span style=&quot;color: #c8c8c8;&quot;&gt;i&lt;/span&gt;&lt;span style=&quot;color: #d4d4d4;&quot;&gt; + &lt;/span&gt;&lt;span style=&quot;color: #b5cea8;&quot;&gt;1&lt;/span&gt;&lt;span style=&quot;color: #d4d4d4;&quot;&gt;];&lt;/span&gt;&lt;/div&gt;&lt;/div&gt;i++&lt;br&gt;" style="whiteSpace=wrap;html=1;" vertex="1" parent="WIyWlLk6GJQsqaUBKTNV-1">
          <mxGeometry x="1265.75" y="2157.5" width="174.25" height="42.5" as="geometry" />
        </mxCell>
        <mxCell id="eiXjgrz9EAbIEzw9EVBK-126" value="" style="edgeStyle=orthogonalEdgeStyle;rounded=0;orthogonalLoop=1;jettySize=auto;html=1;" edge="1" parent="WIyWlLk6GJQsqaUBKTNV-1" source="eiXjgrz9EAbIEzw9EVBK-127" target="eiXjgrz9EAbIEzw9EVBK-130">
          <mxGeometry relative="1" as="geometry" />
        </mxCell>
        <mxCell id="eiXjgrz9EAbIEzw9EVBK-127" value="choice" style="shape=parallelogram;perimeter=parallelogramPerimeter;whiteSpace=wrap;html=1;fixedSize=1;" vertex="1" parent="WIyWlLk6GJQsqaUBKTNV-1">
          <mxGeometry x="570" y="2812" width="120" height="60" as="geometry" />
        </mxCell>
        <mxCell id="eiXjgrz9EAbIEzw9EVBK-128" value="" style="edgeStyle=orthogonalEdgeStyle;rounded=0;orthogonalLoop=1;jettySize=auto;html=1;" edge="1" parent="WIyWlLk6GJQsqaUBKTNV-1" source="eiXjgrz9EAbIEzw9EVBK-130" target="eiXjgrz9EAbIEzw9EVBK-132">
          <mxGeometry relative="1" as="geometry" />
        </mxCell>
        <mxCell id="eiXjgrz9EAbIEzw9EVBK-129" value="" style="edgeStyle=orthogonalEdgeStyle;rounded=0;orthogonalLoop=1;jettySize=auto;html=1;" edge="1" parent="WIyWlLk6GJQsqaUBKTNV-1" source="eiXjgrz9EAbIEzw9EVBK-130" target="eiXjgrz9EAbIEzw9EVBK-134">
          <mxGeometry relative="1" as="geometry" />
        </mxCell>
        <mxCell id="eiXjgrz9EAbIEzw9EVBK-130" value="choice==1" style="rhombus;whiteSpace=wrap;html=1;" vertex="1" parent="WIyWlLk6GJQsqaUBKTNV-1">
          <mxGeometry x="790" y="2802" width="80" height="80" as="geometry" />
        </mxCell>
        <mxCell id="eiXjgrz9EAbIEzw9EVBK-131" value="" style="edgeStyle=orthogonalEdgeStyle;rounded=0;orthogonalLoop=1;jettySize=auto;html=1;" edge="1" parent="WIyWlLk6GJQsqaUBKTNV-1" source="eiXjgrz9EAbIEzw9EVBK-132" target="eiXjgrz9EAbIEzw9EVBK-136">
          <mxGeometry relative="1" as="geometry" />
        </mxCell>
        <mxCell id="eiXjgrz9EAbIEzw9EVBK-132" value="choice==2" style="rhombus;whiteSpace=wrap;html=1;" vertex="1" parent="WIyWlLk6GJQsqaUBKTNV-1">
          <mxGeometry x="790" y="2962" width="80" height="80" as="geometry" />
        </mxCell>
        <mxCell id="eiXjgrz9EAbIEzw9EVBK-133" style="edgeStyle=orthogonalEdgeStyle;rounded=0;orthogonalLoop=1;jettySize=auto;html=1;" edge="1" parent="WIyWlLk6GJQsqaUBKTNV-1" source="eiXjgrz9EAbIEzw9EVBK-140">
          <mxGeometry relative="1" as="geometry">
            <mxPoint x="2790" y="2386.6666666666665" as="targetPoint" />
          </mxGeometry>
        </mxCell>
        <mxCell id="eiXjgrz9EAbIEzw9EVBK-134" value="increase(a,current)" style="whiteSpace=wrap;html=1;" vertex="1" parent="WIyWlLk6GJQsqaUBKTNV-1">
          <mxGeometry x="930" y="2812" width="120" height="60" as="geometry" />
        </mxCell>
        <mxCell id="eiXjgrz9EAbIEzw9EVBK-135" style="edgeStyle=orthogonalEdgeStyle;rounded=0;orthogonalLoop=1;jettySize=auto;html=1;exitX=1;exitY=0.5;exitDx=0;exitDy=0;" edge="1" parent="WIyWlLk6GJQsqaUBKTNV-1" source="eiXjgrz9EAbIEzw9EVBK-136">
          <mxGeometry relative="1" as="geometry">
            <mxPoint x="1338" y="2882" as="targetPoint" />
            <mxPoint x="1138" y="3044" as="sourcePoint" />
          </mxGeometry>
        </mxCell>
        <mxCell id="eiXjgrz9EAbIEzw9EVBK-136" value="decrease(a,current)" style="whiteSpace=wrap;html=1;" vertex="1" parent="WIyWlLk6GJQsqaUBKTNV-1">
          <mxGeometry x="930" y="2972" width="120" height="60" as="geometry" />
        </mxCell>
        <mxCell id="eiXjgrz9EAbIEzw9EVBK-137" value="" style="edgeStyle=orthogonalEdgeStyle;rounded=0;orthogonalLoop=1;jettySize=auto;html=1;" edge="1" parent="WIyWlLk6GJQsqaUBKTNV-1" source="eiXjgrz9EAbIEzw9EVBK-138" target="eiXjgrz9EAbIEzw9EVBK-142">
          <mxGeometry relative="1" as="geometry" />
        </mxCell>
        <mxCell id="eiXjgrz9EAbIEzw9EVBK-138" value="choice==7" style="rhombus;whiteSpace=wrap;html=1;" vertex="1" parent="WIyWlLk6GJQsqaUBKTNV-1">
          <mxGeometry x="374" y="3259.9999999999995" width="80" height="80" as="geometry" />
        </mxCell>
        <mxCell id="eiXjgrz9EAbIEzw9EVBK-139" value="" style="edgeStyle=orthogonalEdgeStyle;rounded=0;orthogonalLoop=1;jettySize=auto;html=1;" edge="1" parent="WIyWlLk6GJQsqaUBKTNV-1" source="eiXjgrz9EAbIEzw9EVBK-134" target="eiXjgrz9EAbIEzw9EVBK-140">
          <mxGeometry relative="1" as="geometry">
            <mxPoint x="2790" y="2386.6666666666665" as="targetPoint" />
            <mxPoint x="1050" y="2842" as="sourcePoint" />
          </mxGeometry>
        </mxCell>
        <mxCell id="eiXjgrz9EAbIEzw9EVBK-140" value="&#xa;&lt;div style=&quot;color: rgb(212, 212, 212); background-color: rgb(30, 30, 30); font-family: Consolas, &amp;quot;Courier New&amp;quot;, monospace; font-weight: normal; font-size: 14px; line-height: 19px;&quot;&gt;&lt;div&gt;&lt;span style=&quot;color: #d4d4d4;&quot;&gt;&amp;nbsp;&lt;/span&gt;&lt;span style=&quot;color: #c8c8c8;&quot;&gt;countArrange&lt;/span&gt;&lt;span style=&quot;color: #d4d4d4;&quot;&gt; = &lt;/span&gt;&lt;span style=&quot;color: #b5cea8;&quot;&gt;1&lt;/span&gt;&lt;span style=&quot;color: #d4d4d4;&quot;&gt;;&lt;/span&gt;&lt;/div&gt;&lt;/div&gt;&#xa;&#xa;" style="rounded=1;whiteSpace=wrap;html=1;" vertex="1" parent="WIyWlLk6GJQsqaUBKTNV-1">
          <mxGeometry x="1292.88" y="2822" width="120" height="60" as="geometry" />
        </mxCell>
        <mxCell id="eiXjgrz9EAbIEzw9EVBK-141" value="" style="edgeStyle=orthogonalEdgeStyle;rounded=0;orthogonalLoop=1;jettySize=auto;html=1;" edge="1" parent="WIyWlLk6GJQsqaUBKTNV-1" source="eiXjgrz9EAbIEzw9EVBK-142" target="eiXjgrz9EAbIEzw9EVBK-145">
          <mxGeometry relative="1" as="geometry" />
        </mxCell>
        <mxCell id="eiXjgrz9EAbIEzw9EVBK-142" value="fiindValue" style="shape=parallelogram;perimeter=parallelogramPerimeter;whiteSpace=wrap;html=1;fixedSize=1;" vertex="1" parent="WIyWlLk6GJQsqaUBKTNV-1">
          <mxGeometry x="570" y="3269.9999999999995" width="120" height="60" as="geometry" />
        </mxCell>
        <mxCell id="eiXjgrz9EAbIEzw9EVBK-143" value="" style="edgeStyle=orthogonalEdgeStyle;rounded=0;orthogonalLoop=1;jettySize=auto;html=1;" edge="1" parent="WIyWlLk6GJQsqaUBKTNV-1" source="eiXjgrz9EAbIEzw9EVBK-145" target="eiXjgrz9EAbIEzw9EVBK-147">
          <mxGeometry relative="1" as="geometry" />
        </mxCell>
        <mxCell id="eiXjgrz9EAbIEzw9EVBK-144" value="" style="edgeStyle=orthogonalEdgeStyle;rounded=0;orthogonalLoop=1;jettySize=auto;html=1;" edge="1" parent="WIyWlLk6GJQsqaUBKTNV-1" source="eiXjgrz9EAbIEzw9EVBK-145" target="eiXjgrz9EAbIEzw9EVBK-160">
          <mxGeometry relative="1" as="geometry" />
        </mxCell>
        <mxCell id="eiXjgrz9EAbIEzw9EVBK-145" value="&lt;div style=&quot;color: rgb(212, 212, 212); background-color: rgb(30, 30, 30); font-family: Consolas, &amp;quot;Courier New&amp;quot;, monospace; font-size: 14px; line-height: 19px;&quot;&gt;countArrange == &lt;span style=&quot;color: #b5cea8;&quot;&gt;0&lt;/span&gt;&lt;/div&gt;" style="rhombus;whiteSpace=wrap;html=1;" vertex="1" parent="WIyWlLk6GJQsqaUBKTNV-1">
          <mxGeometry x="790" y="3260" width="150" height="100" as="geometry" />
        </mxCell>
        <mxCell id="eiXjgrz9EAbIEzw9EVBK-146" value="" style="edgeStyle=orthogonalEdgeStyle;rounded=0;orthogonalLoop=1;jettySize=auto;html=1;" edge="1" parent="WIyWlLk6GJQsqaUBKTNV-1" source="eiXjgrz9EAbIEzw9EVBK-147" target="eiXjgrz9EAbIEzw9EVBK-149">
          <mxGeometry relative="1" as="geometry" />
        </mxCell>
        <mxCell id="eiXjgrz9EAbIEzw9EVBK-147" value="i=0" style="whiteSpace=wrap;html=1;" vertex="1" parent="WIyWlLk6GJQsqaUBKTNV-1">
          <mxGeometry x="1035" y="3280" width="120" height="60" as="geometry" />
        </mxCell>
        <mxCell id="eiXjgrz9EAbIEzw9EVBK-148" value="" style="edgeStyle=orthogonalEdgeStyle;rounded=0;orthogonalLoop=1;jettySize=auto;html=1;" edge="1" parent="WIyWlLk6GJQsqaUBKTNV-1" source="eiXjgrz9EAbIEzw9EVBK-149" target="eiXjgrz9EAbIEzw9EVBK-153">
          <mxGeometry relative="1" as="geometry" />
        </mxCell>
        <mxCell id="eiXjgrz9EAbIEzw9EVBK-149" value="i&amp;lt;current" style="rhombus;whiteSpace=wrap;html=1;" vertex="1" parent="WIyWlLk6GJQsqaUBKTNV-1">
          <mxGeometry x="1255" y="3270" width="80" height="80" as="geometry" />
        </mxCell>
        <mxCell id="eiXjgrz9EAbIEzw9EVBK-150" style="edgeStyle=orthogonalEdgeStyle;rounded=0;orthogonalLoop=1;jettySize=auto;html=1;entryX=0;entryY=0.5;entryDx=0;entryDy=0;" edge="1" parent="WIyWlLk6GJQsqaUBKTNV-1" source="eiXjgrz9EAbIEzw9EVBK-153" target="eiXjgrz9EAbIEzw9EVBK-155">
          <mxGeometry relative="1" as="geometry" />
        </mxCell>
        <mxCell id="eiXjgrz9EAbIEzw9EVBK-151" value="true" style="edgeLabel;html=1;align=center;verticalAlign=middle;resizable=0;points=[];" vertex="1" connectable="0" parent="eiXjgrz9EAbIEzw9EVBK-150">
          <mxGeometry x="0.0252" y="3" relative="1" as="geometry">
            <mxPoint as="offset" />
          </mxGeometry>
        </mxCell>
        <mxCell id="eiXjgrz9EAbIEzw9EVBK-152" style="edgeStyle=orthogonalEdgeStyle;rounded=0;orthogonalLoop=1;jettySize=auto;html=1;entryX=0;entryY=0;entryDx=0;entryDy=0;" edge="1" parent="WIyWlLk6GJQsqaUBKTNV-1" source="eiXjgrz9EAbIEzw9EVBK-158" target="eiXjgrz9EAbIEzw9EVBK-149">
          <mxGeometry relative="1" as="geometry">
            <mxPoint x="1200" y="3300" as="targetPoint" />
            <Array as="points">
              <mxPoint x="1275" y="3150" />
            </Array>
          </mxGeometry>
        </mxCell>
        <mxCell id="eiXjgrz9EAbIEzw9EVBK-153" value="a[i]==find_value" style="rhombus;whiteSpace=wrap;html=1;" vertex="1" parent="WIyWlLk6GJQsqaUBKTNV-1">
          <mxGeometry x="1440" y="3260" width="145" height="100" as="geometry" />
        </mxCell>
        <mxCell id="eiXjgrz9EAbIEzw9EVBK-154" style="edgeStyle=orthogonalEdgeStyle;rounded=0;orthogonalLoop=1;jettySize=auto;html=1;" edge="1" parent="WIyWlLk6GJQsqaUBKTNV-1" source="eiXjgrz9EAbIEzw9EVBK-155">
          <mxGeometry relative="1" as="geometry">
            <mxPoint x="2795" y="2800" as="targetPoint" />
          </mxGeometry>
        </mxCell>
        <mxCell id="eiXjgrz9EAbIEzw9EVBK-155" value="i" style="shape=parallelogram;perimeter=parallelogramPerimeter;whiteSpace=wrap;html=1;fixedSize=1;" vertex="1" parent="WIyWlLk6GJQsqaUBKTNV-1">
          <mxGeometry x="1800" y="3280" width="120" height="60" as="geometry" />
        </mxCell>
        <mxCell id="eiXjgrz9EAbIEzw9EVBK-156" value="" style="edgeStyle=orthogonalEdgeStyle;rounded=0;orthogonalLoop=1;jettySize=auto;html=1;entryX=0;entryY=0;entryDx=0;entryDy=0;" edge="1" parent="WIyWlLk6GJQsqaUBKTNV-1" source="eiXjgrz9EAbIEzw9EVBK-153" target="eiXjgrz9EAbIEzw9EVBK-158">
          <mxGeometry relative="1" as="geometry">
            <mxPoint x="1275" y="3290" as="targetPoint" />
            <mxPoint x="1540" y="3279" as="sourcePoint" />
            <Array as="points">
              <mxPoint x="1540" y="3150" />
            </Array>
          </mxGeometry>
        </mxCell>
        <mxCell id="eiXjgrz9EAbIEzw9EVBK-157" value="false" style="edgeLabel;html=1;align=center;verticalAlign=middle;resizable=0;points=[];" vertex="1" connectable="0" parent="eiXjgrz9EAbIEzw9EVBK-156">
          <mxGeometry x="-0.5773" y="3" relative="1" as="geometry">
            <mxPoint y="-1" as="offset" />
          </mxGeometry>
        </mxCell>
        <mxCell id="eiXjgrz9EAbIEzw9EVBK-158" value="i++" style="rounded=1;whiteSpace=wrap;html=1;" vertex="1" parent="WIyWlLk6GJQsqaUBKTNV-1">
          <mxGeometry x="1410" y="3130" width="120" height="60" as="geometry" />
        </mxCell>
        <mxCell id="eiXjgrz9EAbIEzw9EVBK-159" value="" style="edgeStyle=orthogonalEdgeStyle;rounded=0;orthogonalLoop=1;jettySize=auto;html=1;" edge="1" parent="WIyWlLk6GJQsqaUBKTNV-1" source="eiXjgrz9EAbIEzw9EVBK-165" target="eiXjgrz9EAbIEzw9EVBK-163">
          <mxGeometry relative="1" as="geometry" />
        </mxCell>
        <mxCell id="eiXjgrz9EAbIEzw9EVBK-160" value="&#xa;&lt;div style=&quot;color: rgb(212, 212, 212); background-color: rgb(30, 30, 30); font-family: Consolas, &amp;quot;Courier New&amp;quot;, monospace; font-weight: normal; font-size: 14px; line-height: 19px;&quot;&gt;&lt;div&gt;&lt;span style=&quot;color: #c8c8c8;&quot;&gt;start&lt;/span&gt;&lt;span style=&quot;color: #d4d4d4;&quot;&gt; = &lt;/span&gt;&lt;span style=&quot;color: #b5cea8;&quot;&gt;0&lt;/span&gt;&lt;span style=&quot;color: #d4d4d4;&quot;&gt;, &lt;/span&gt;&lt;span style=&quot;color: #c8c8c8;&quot;&gt;end&lt;/span&gt;&lt;span style=&quot;color: #d4d4d4;&quot;&gt; = &lt;/span&gt;&lt;span style=&quot;color: #c8c8c8;&quot;&gt;current&lt;/span&gt;&lt;span style=&quot;color: #d4d4d4;&quot;&gt;, &lt;/span&gt;&lt;span style=&quot;color: #c8c8c8;&quot;&gt;check&lt;/span&gt;&lt;span style=&quot;color: #d4d4d4;&quot;&gt;;&lt;/span&gt;&lt;/div&gt;&lt;/div&gt;&#xa;&#xa;" style="whiteSpace=wrap;html=1;" vertex="1" parent="WIyWlLk6GJQsqaUBKTNV-1">
          <mxGeometry x="805" y="3460" width="275" height="190" as="geometry" />
        </mxCell>
        <mxCell id="eiXjgrz9EAbIEzw9EVBK-161" value="" style="edgeStyle=orthogonalEdgeStyle;rounded=0;orthogonalLoop=1;jettySize=auto;html=1;" edge="1" parent="WIyWlLk6GJQsqaUBKTNV-1" source="eiXjgrz9EAbIEzw9EVBK-163" target="eiXjgrz9EAbIEzw9EVBK-167">
          <mxGeometry relative="1" as="geometry" />
        </mxCell>
        <mxCell id="eiXjgrz9EAbIEzw9EVBK-162" value="" style="edgeStyle=orthogonalEdgeStyle;rounded=0;orthogonalLoop=1;jettySize=auto;html=1;" edge="1" parent="WIyWlLk6GJQsqaUBKTNV-1" source="eiXjgrz9EAbIEzw9EVBK-163" target="eiXjgrz9EAbIEzw9EVBK-170">
          <mxGeometry relative="1" as="geometry" />
        </mxCell>
        <mxCell id="eiXjgrz9EAbIEzw9EVBK-163" value="a[check]==findValue" style="rhombus;whiteSpace=wrap;html=1;" vertex="1" parent="WIyWlLk6GJQsqaUBKTNV-1">
          <mxGeometry x="860" y="3940" width="157.5" height="130" as="geometry" />
        </mxCell>
        <mxCell id="eiXjgrz9EAbIEzw9EVBK-164" value="" style="edgeStyle=orthogonalEdgeStyle;rounded=0;orthogonalLoop=1;jettySize=auto;html=1;" edge="1" parent="WIyWlLk6GJQsqaUBKTNV-1" source="eiXjgrz9EAbIEzw9EVBK-160" target="eiXjgrz9EAbIEzw9EVBK-165">
          <mxGeometry relative="1" as="geometry">
            <mxPoint x="943" y="3650" as="sourcePoint" />
            <mxPoint x="939" y="3940" as="targetPoint" />
          </mxGeometry>
        </mxCell>
        <mxCell id="eiXjgrz9EAbIEzw9EVBK-165" value="&#xa;&lt;div style=&quot;color: rgb(212, 212, 212); background-color: rgb(30, 30, 30); font-family: Consolas, &amp;quot;Courier New&amp;quot;, monospace; font-weight: normal; font-size: 14px; line-height: 19px;&quot;&gt;&lt;div&gt;&lt;span style=&quot;color: #d4d4d4;&quot;&gt;&amp;nbsp;&lt;/span&gt;&lt;span style=&quot;color: #c8c8c8;&quot;&gt;check&lt;/span&gt;&lt;span style=&quot;color: #d4d4d4;&quot;&gt; = (&lt;/span&gt;&lt;span style=&quot;color: #c8c8c8;&quot;&gt;start&lt;/span&gt;&lt;span style=&quot;color: #d4d4d4;&quot;&gt; + &lt;/span&gt;&lt;span style=&quot;color: #c8c8c8;&quot;&gt;end&lt;/span&gt;&lt;span style=&quot;color: #d4d4d4;&quot;&gt; / &lt;/span&gt;&lt;span style=&quot;color: #b5cea8;&quot;&gt;2&lt;/span&gt;&lt;span style=&quot;color: #d4d4d4;&quot;&gt;);&lt;/span&gt;&lt;/div&gt;&lt;/div&gt;&#xa;&#xa;" style="rounded=1;whiteSpace=wrap;html=1;" vertex="1" parent="WIyWlLk6GJQsqaUBKTNV-1">
          <mxGeometry x="880" y="3730" width="120" height="60" as="geometry" />
        </mxCell>
        <mxCell id="eiXjgrz9EAbIEzw9EVBK-166" style="edgeStyle=orthogonalEdgeStyle;rounded=0;orthogonalLoop=1;jettySize=auto;html=1;" edge="1" parent="WIyWlLk6GJQsqaUBKTNV-1" source="eiXjgrz9EAbIEzw9EVBK-167">
          <mxGeometry relative="1" as="geometry">
            <mxPoint x="2790" y="2798" as="targetPoint" />
          </mxGeometry>
        </mxCell>
        <mxCell id="eiXjgrz9EAbIEzw9EVBK-167" value="a[check]" style="shape=parallelogram;perimeter=parallelogramPerimeter;whiteSpace=wrap;html=1;fixedSize=1;" vertex="1" parent="WIyWlLk6GJQsqaUBKTNV-1">
          <mxGeometry x="1440" y="3972.5" width="120" height="65" as="geometry" />
        </mxCell>
        <mxCell id="eiXjgrz9EAbIEzw9EVBK-168" style="edgeStyle=orthogonalEdgeStyle;rounded=0;orthogonalLoop=1;jettySize=auto;html=1;entryX=1;entryY=0.5;entryDx=0;entryDy=0;" edge="1" parent="WIyWlLk6GJQsqaUBKTNV-1" source="eiXjgrz9EAbIEzw9EVBK-170" target="eiXjgrz9EAbIEzw9EVBK-172">
          <mxGeometry relative="1" as="geometry" />
        </mxCell>
        <mxCell id="eiXjgrz9EAbIEzw9EVBK-169" value="" style="edgeStyle=orthogonalEdgeStyle;rounded=0;orthogonalLoop=1;jettySize=auto;html=1;entryX=0.5;entryY=0;entryDx=0;entryDy=0;" edge="1" parent="WIyWlLk6GJQsqaUBKTNV-1" source="eiXjgrz9EAbIEzw9EVBK-170" target="eiXjgrz9EAbIEzw9EVBK-174">
          <mxGeometry relative="1" as="geometry">
            <mxPoint x="938.75" y="4480" as="targetPoint" />
          </mxGeometry>
        </mxCell>
        <mxCell id="eiXjgrz9EAbIEzw9EVBK-170" value="&lt;div style=&quot;color: rgb(212, 212, 212); background-color: rgb(30, 30, 30); font-family: Consolas, &amp;quot;Courier New&amp;quot;, monospace; font-size: 14px; line-height: 19px;&quot;&gt;a[&lt;span style=&quot;color: #c8c8c8;&quot;&gt;check&lt;/span&gt;] &amp;gt; &lt;span style=&quot;color: #c8c8c8;&quot;&gt;find_value&lt;/span&gt;&lt;/div&gt;" style="rhombus;whiteSpace=wrap;html=1;" vertex="1" parent="WIyWlLk6GJQsqaUBKTNV-1">
          <mxGeometry x="818.75" y="4210" width="240" height="190" as="geometry" />
        </mxCell>
        <mxCell id="eiXjgrz9EAbIEzw9EVBK-171" style="edgeStyle=orthogonalEdgeStyle;rounded=0;orthogonalLoop=1;jettySize=auto;html=1;" edge="1" parent="WIyWlLk6GJQsqaUBKTNV-1" source="eiXjgrz9EAbIEzw9EVBK-172">
          <mxGeometry relative="1" as="geometry">
            <mxPoint x="940" y="3690" as="targetPoint" />
            <Array as="points">
              <mxPoint x="508" y="3680" />
              <mxPoint x="940" y="3680" />
            </Array>
          </mxGeometry>
        </mxCell>
        <mxCell id="eiXjgrz9EAbIEzw9EVBK-172" value="&#xa;&lt;div style=&quot;color: rgb(212, 212, 212); background-color: rgb(30, 30, 30); font-family: Consolas, &amp;quot;Courier New&amp;quot;, monospace; font-weight: normal; font-size: 14px; line-height: 19px;&quot;&gt;&lt;div&gt;&lt;span style=&quot;color: #d4d4d4;&quot;&gt;&amp;nbsp;&lt;/span&gt;&lt;span style=&quot;color: #c8c8c8;&quot;&gt;end&lt;/span&gt;&lt;span style=&quot;color: #d4d4d4;&quot;&gt; = &lt;/span&gt;&lt;span style=&quot;color: #c8c8c8;&quot;&gt;check&lt;/span&gt;&lt;span style=&quot;color: #d4d4d4;&quot;&gt; - &lt;/span&gt;&lt;span style=&quot;color: #b5cea8;&quot;&gt;1&lt;/span&gt;&lt;span style=&quot;color: #d4d4d4;&quot;&gt;;&lt;/span&gt;&lt;/div&gt;&lt;/div&gt;&#xa;&#xa;" style="rounded=1;whiteSpace=wrap;html=1;" vertex="1" parent="WIyWlLk6GJQsqaUBKTNV-1">
          <mxGeometry x="383" y="4240" width="250" height="120" as="geometry" />
        </mxCell>
        <mxCell id="eiXjgrz9EAbIEzw9EVBK-173" style="edgeStyle=orthogonalEdgeStyle;rounded=0;orthogonalLoop=1;jettySize=auto;html=1;" edge="1" parent="WIyWlLk6GJQsqaUBKTNV-1" source="eiXjgrz9EAbIEzw9EVBK-174">
          <mxGeometry relative="1" as="geometry">
            <mxPoint x="510" y="3700" as="targetPoint" />
            <Array as="points">
              <mxPoint x="181" y="4635" />
              <mxPoint x="181" y="3700" />
            </Array>
          </mxGeometry>
        </mxCell>
        <mxCell id="eiXjgrz9EAbIEzw9EVBK-174" value="&#xa;&lt;div style=&quot;color: rgb(212, 212, 212); background-color: rgb(30, 30, 30); font-family: Consolas, &amp;quot;Courier New&amp;quot;, monospace; font-weight: normal; font-size: 14px; line-height: 19px;&quot;&gt;&lt;div&gt;&lt;span style=&quot;color: #d4d4d4;&quot;&gt;&amp;nbsp;&lt;/span&gt;&lt;span style=&quot;color: #c8c8c8;&quot;&gt;start&lt;/span&gt;&lt;span style=&quot;color: #d4d4d4;&quot;&gt; = &lt;/span&gt;&lt;span style=&quot;color: #c8c8c8;&quot;&gt;check&lt;/span&gt;&lt;span style=&quot;color: #d4d4d4;&quot;&gt; + &lt;/span&gt;&lt;span style=&quot;color: #b5cea8;&quot;&gt;1&lt;/span&gt;&lt;span style=&quot;color: #d4d4d4;&quot;&gt;;&lt;/span&gt;&lt;/div&gt;&lt;/div&gt;&#xa;&#xa;" style="rounded=1;whiteSpace=wrap;html=1;" vertex="1" parent="WIyWlLk6GJQsqaUBKTNV-1">
          <mxGeometry x="720" y="4580" width="190" height="110" as="geometry" />
        </mxCell>
      </root>
    </mxGraphModel>
  </diagram>
</mxfile>
